<?xml version="1.0" encoding="UTF-8"?>
<svg version="1.1" xmlns="http://www.w3.org/2000/svg" width="141" height="150">
<path d="M0 0 C15.51 0 31.02 0 47 0 C47 1.32 47 2.64 47 4 C49.64 4 52.28 4 55 4 C55 5.32 55 6.64 55 8 C57.64 8 60.28 8 63 8 C63 9.32 63 10.64 63 12 C64.32 12 65.64 12 67 12 C67 13.32 67 14.64 67 16 C69.31 16 71.62 16 74 16 C74 17.32 74 18.64 74 20 C75.32 20 76.64 20 78 20 C78 22.64 78 25.28 78 28 C79.32 28 80.64 28 82 28 C82 29.32 82 30.64 82 32 C83.32 32 84.64 32 86 32 C86 34.31 86 36.62 86 39 C87.32 39 88.64 39 90 39 C90 41.64 90 44.28 90 47 C91.32 47 92.64 47 94 47 C94 62.84 94 78.68 94 95 C92.68 95 91.36 95 90 95 C90 97.64 90 100.28 90 103 C88.68 103 87.36 103 86 103 C86 105.64 86 108.28 86 111 C84.68 111 83.36 111 82 111 C82 111.99 82 112.98 82 114 C80.68 114 79.36 114 78 114 C78 115.32 78 116.64 78 118 C76.68 118 75.36 118 74 118 C74 119.32 74 120.64 74 122 C75.32 122 76.64 122 78 122 C78 125.96 78 129.92 78 134 C76.68 134 75.36 134 74 134 C74 135.32 74 136.64 74 138 C73.01 138 72.02 138 71 138 C71 139.32 71 140.64 71 142 C68.36 142 65.72 142 63 142 C63 143.32 63 144.64 63 146 C59.04 146 55.08 146 51 146 C51 147.32 51 148.64 51 150 C28.89 150 6.78 150 -16 150 C-16 148.68 -16 147.36 -16 146 C-19.63 146 -23.26 146 -27 146 C-27 144.68 -27 143.36 -27 142 C-29.64 142 -32.28 142 -35 142 C-35 140.68 -35 139.36 -35 138 C-37.64 138 -40.28 138 -43 138 C-43 136.68 -43 135.36 -43 134 C-44.32 134 -45.64 134 -47 134 C-47 130.04 -47 126.08 -47 122 C-45.68 122 -44.36 122 -43 122 C-43 120.68 -43 119.36 -43 118 C-40.36 118 -37.72 118 -35 118 C-35 115.69 -35 113.38 -35 111 C-36.32 111 -37.64 111 -39 111 C-39 108.36 -39 105.72 -39 103 C-40.32 103 -41.64 103 -43 103 C-43 100.36 -43 97.72 -43 95 C-44.32 95 -45.64 95 -47 95 C-47 80.48 -47 65.96 -47 51 C-45.68 51 -44.36 51 -43 51 C-43 47.04 -43 43.08 -43 39 C-41.68 39 -40.36 39 -39 39 C-39 36.69 -39 34.38 -39 32 C-37.68 32 -36.36 32 -35 32 C-35 30.68 -35 29.36 -35 28 C-33.68 28 -32.36 28 -31 28 C-31 26.68 -31 25.36 -31 24 C-29.68 24 -28.36 24 -27 24 C-27 21.36 -27 18.72 -27 16 C-24.69 16 -22.38 16 -20 16 C-20 14.68 -20 13.36 -20 12 C-18.68 12 -17.36 12 -16 12 C-16 10.68 -16 9.36 -16 8 C-13.36 8 -10.72 8 -8 8 C-8 6.68 -8 5.36 -8 4 C-5.36 4 -2.72 4 0 4 C0 2.68 0 1.36 0 0 Z " fill="#F7F7F7" transform="translate(47,0)"/>
<path d="M0 0 C2.31 0 4.62 0 7 0 C7 1.32 7 2.64 7 4 C5.68 4 4.36 4 3 4 C3.2475 5.0209375 3.2475 5.0209375 3.5 6.0625 C4.07089059 9.4164822 4.06659023 12.60389805 4 16 C2.68 16 1.36 16 0 16 C0 17.32 0 18.64 0 20 C1.32 20 2.64 20 4 20 C4 20.99 4 21.98 4 23 C11.59 23 19.18 23 27 23 C27 26.96 27 30.92 27 35 C28.32 35 29.64 35 31 35 C31 41.6 31 48.2 31 55 C29.68 55 28.36 55 27 55 C27 56.32 27 57.64 27 59 C25.68 59 24.36 59 23 59 C23 60.32 23 61.64 23 63 C21.68 63 20.36 63 19 63 C19 64.32 19 65.64 19 67 C17.68 67 16.36 67 15 67 C15 68.32 15 69.64 15 71 C12.36 71 9.72 71 7 71 C7 74.96 7 78.92 7 83 C8.32 83 9.64 83 11 83 C11 84.32 11 85.64 11 87 C12.32 87 13.64 87 15 87 C15 88.32 15 89.64 15 91 C13.68 91 12.36 91 11 91 C11 92.32 11 93.64 11 95 C13.64 95 16.28 95 19 95 C19 95.99 19 96.98 19 98 C20.32 98 21.64 98 23 98 C23 99.32 23 100.64 23 102 C25.64 102 28.28 102 31 102 C31 103.32 31 104.64 31 106 C36.28 106 41.56 106 47 106 C47 107.32 47 108.64 47 110 C48.32 110 49.64 110 51 110 C51 113.96 51 117.92 51 122 C49.68 122 48.36 122 47 122 C47 123.32 47 124.64 47 126 C53.27 126 59.54 126 66 126 C66 124.68 66 123.36 66 122 C69.96 122 73.92 122 78 122 C78 120.68 78 119.36 78 118 C79.32 118 80.64 118 82 118 C82 116.68 82 115.36 82 114 C85.96 114 89.92 114 94 114 C94 111.36 94 108.72 94 106 C94.99 106 95.98 106 97 106 C97 104.68 97 103.36 97 102 C98.32 102 99.64 102 101 102 C101 103.32 101 104.64 101 106 C102.32 106 103.64 106 105 106 C105 109.96 105 113.92 105 118 C103.68 118 102.36 118 101 118 C101 119.32 101 120.64 101 122 C100.01 122 99.02 122 98 122 C98 123.32 98 124.64 98 126 C95.36 126 92.72 126 90 126 C90 127.32 90 128.64 90 130 C86.04 130 82.08 130 78 130 C78 131.32 78 132.64 78 134 C55.89 134 33.78 134 11 134 C11 132.68 11 131.36 11 130 C7.37 130 3.74 130 0 130 C0 128.68 0 127.36 0 126 C-2.64 126 -5.28 126 -8 126 C-8 124.68 -8 123.36 -8 122 C-10.64 122 -13.28 122 -16 122 C-16 120.68 -16 119.36 -16 118 C-17.32 118 -18.64 118 -20 118 C-20 114.04 -20 110.08 -20 106 C-18.68 106 -17.36 106 -16 106 C-16 104.68 -16 103.36 -16 102 C-13.36 102 -10.72 102 -8 102 C-8 99.69 -8 97.38 -8 95 C-9.32 95 -10.64 95 -12 95 C-12 92.36 -12 89.72 -12 87 C-13.32 87 -14.64 87 -16 87 C-16 84.36 -16 81.72 -16 79 C-17.32 79 -18.64 79 -20 79 C-20 64.48 -20 49.96 -20 35 C-18.68 35 -17.36 35 -16 35 C-16 31.04 -16 27.08 -16 23 C-14.68 23 -13.36 23 -12 23 C-12 20.69 -12 18.38 -12 16 C-10.68 16 -9.36 16 -8 16 C-8 14.68 -8 13.36 -8 12 C-6.68 12 -5.36 12 -4 12 C-4 10.68 -4 9.36 -4 8 C-2.68 8 -1.36 8 0 8 C0 5.36 0 2.72 0 0 Z " fill="#E2E2E2" transform="translate(20,16)"/>
<path d="M0 0 C1.32 0 2.64 0 4 0 C4 0.99 4 1.98 4 3 C5.32 3 6.64 3 8 3 C8 4.32 8 5.64 8 7 C9.32 7 10.64 7 12 7 C12 8.32 12 9.64 12 11 C14.31 11 16.62 11 19 11 C19 9.68 19 8.36 19 7 C20.32 7 21.64 7 23 7 C23 5.68 23 4.36 23 3 C25.64 3 28.28 3 31 3 C31 4.32 31 5.64 31 7 C33.64 7 36.28 7 39 7 C39 8.32 39 9.64 39 11 C44.28 11 49.56 11 55 11 C55 12.32 55 13.64 55 15 C56.32 15 57.64 15 59 15 C59 18.96 59 22.92 59 27 C57.68 27 56.36 27 55 27 C55 28.32 55 29.64 55 31 C61.27 31 67.54 31 74 31 C74 29.68 74 28.36 74 27 C77.96 27 81.92 27 86 27 C86 25.68 86 24.36 86 23 C87.32 23 88.64 23 90 23 C90 21.68 90 20.36 90 19 C93.96 19 97.92 19 102 19 C102 16.36 102 13.72 102 11 C102.99 11 103.98 11 105 11 C105 9.68 105 8.36 105 7 C106.32 7 107.64 7 109 7 C109 8.32 109 9.64 109 11 C110.32 11 111.64 11 113 11 C113 14.96 113 18.92 113 23 C111.68 23 110.36 23 109 23 C109 24.32 109 25.64 109 27 C108.01 27 107.02 27 106 27 C106 28.32 106 29.64 106 31 C103.36 31 100.72 31 98 31 C98 32.32 98 33.64 98 35 C94.04 35 90.08 35 86 35 C86 36.32 86 37.64 86 39 C63.89 39 41.78 39 19 39 C19 37.68 19 36.36 19 35 C15.37 35 11.74 35 8 35 C8 33.68 8 32.36 8 31 C5.36 31 2.72 31 0 31 C0 29.68 0 28.36 0 27 C-2.64 27 -5.28 27 -8 27 C-8 25.68 -8 24.36 -8 23 C-9.32 23 -10.64 23 -12 23 C-12 19.04 -12 15.08 -12 11 C-10.68 11 -9.36 11 -8 11 C-8 9.68 -8 8.36 -8 7 C-5.36 7 -2.72 7 0 7 C0 4.69 0 2.38 0 0 Z " fill="#313131" transform="translate(12,111)"/>
<path d="M0 0 C5.28 0 10.56 0 16 0 C16 1.32 16 2.64 16 4 C16.99 4 17.98 4 19 4 C19 5.32 19 6.64 19 8 C20.32 8 21.64 8 23 8 C23 9.32 23 10.64 23 12 C24.32 12 25.64 12 27 12 C27 17.28 27 22.56 27 28 C25.68 28 24.36 28 23 28 C23 30.64 23 33.28 23 36 C21.68 36 20.36 36 19 36 C19 38.64 19 41.28 19 44 C16.69 44 14.38 44 12 44 C12 45.32 12 46.64 12 48 C5.4 48 -1.2 48 -8 48 C-8 45.36 -8 42.72 -8 40 C-9.32 40 -10.64 40 -12 40 C-12 33.4 -12 26.8 -12 20 C-13.32 20 -14.64 20 -16 20 C-16 18.68 -16 17.36 -16 16 C-14.68 16 -13.36 16 -12 16 C-12 14.68 -12 13.36 -12 12 C-10.68 12 -9.36 12 -8 12 C-8 10.68 -8 9.36 -8 8 C-6.68 8 -5.36 8 -4 8 C-4 6.68 -4 5.36 -4 4 C-2.68 4 -1.36 4 0 4 C0 2.68 0 1.36 0 0 Z " fill="#282828" transform="translate(98,59)"/>
<path d="M0 0 C8.91 0 17.82 0 27 0 C27 3.96 27 7.92 27 12 C28.32 12 29.64 12 31 12 C31 18.6 31 25.2 31 32 C29.68 32 28.36 32 27 32 C27 33.32 27 34.64 27 36 C25.68 36 24.36 36 23 36 C23 37.32 23 38.64 23 40 C21.68 40 20.36 40 19 40 C19 41.32 19 42.64 19 44 C17.68 44 16.36 44 15 44 C15 45.32 15 46.64 15 48 C12.36 48 9.72 48 7 48 C7 46.68 7 45.36 7 44 C6.01 44 5.02 44 4 44 C4 42.68 4 41.36 4 40 C2.68 40 1.36 40 0 40 C0 38.68 0 37.36 0 36 C-1.32 36 -2.64 36 -4 36 C-4 34.68 -4 33.36 -4 32 C-5.32 32 -6.64 32 -8 32 C-8 26.72 -8 21.44 -8 16 C-6.68 16 -5.36 16 -4 16 C-4 12.04 -4 8.08 -4 4 C-2.68 4 -1.36 4 0 4 C0 2.68 0 1.36 0 0 Z " fill="#222222" transform="translate(20,39)"/>
<path d="M0 0 C11.55 0 23.1 0 35 0 C35 2.64 35 5.28 35 8 C36.32 8 37.64 8 39 8 C39 9.32 39 10.64 39 12 C40.32 12 41.64 12 43 12 C43 14.64 43 17.28 43 20 C40.36 20 37.72 20 35 20 C35 21.32 35 22.64 35 24 C31.04 24 27.08 24 23 24 C23 22.68 23 21.36 23 20 C20.36 20 17.72 20 15 20 C15 18.68 15 17.36 15 16 C11.04 16 7.08 16 3 16 C3 14.68 3 13.36 3 12 C2.01 12 1.02 12 0 12 C0 8.04 0 4.08 0 0 Z " fill="#252525" transform="translate(67,4)"/>
<path d="M0 0 C2.64 0 5.28 0 8 0 C8 1.32 8 2.64 8 4 C10.64 4 13.28 4 16 4 C16 5.32 16 6.64 16 8 C21.28 8 26.56 8 32 8 C32 9.32 32 10.64 32 12 C33.32 12 34.64 12 36 12 C36 15.96 36 19.92 36 24 C32.04 24 28.08 24 24 24 C24 25.32 24 26.64 24 28 C22.68 28 21.36 28 20 28 C20 26.68 20 25.36 20 24 C16.04 24 12.08 24 8 24 C8 22.68 8 21.36 8 20 C5.36 20 2.72 20 0 20 C0 17.36 0 14.72 0 12 C-1.32 12 -2.64 12 -4 12 C-4 9.36 -4 6.72 -4 4 C-2.68 4 -1.36 4 0 4 C0 2.68 0 1.36 0 0 Z " fill="#060606" transform="translate(35,114)"/>
<path d="M0 0 C7.59 0 15.18 0 23 0 C23 1.32 23 2.64 23 4 C25.64 4 28.28 4 31 4 C31 5.32 31 6.64 31 8 C21.76 8 12.52 8 3 8 C3 6.68 3 5.36 3 4 C2.01 4 1.02 4 0 4 C0 2.68 0 1.36 0 0 Z " fill="#191919" transform="translate(67,4)"/>
<path d="M0 0 C2.64 0 5.28 0 8 0 C8 6.6 8 13.2 8 20 C6.68 20 5.36 20 4 20 C4 18.68 4 17.36 4 16 C2.68 16 1.36 16 0 16 C0 10.72 0 5.44 0 0 Z " fill="#3B3B3B" transform="translate(43,51)"/>
<path d="M0 0 C1.32 0 2.64 0 4 0 C4 6.6 4 13.2 4 20 C1.36 20 -1.28 20 -4 20 C-4 14.72 -4 9.44 -4 4 C-2.68 4 -1.36 4 0 4 C0 2.68 0 1.36 0 0 Z " fill="#040404" transform="translate(16,51)"/>
<path d="M0 0 C1.32 0 2.64 0 4 0 C4 2.64 4 5.28 4 8 C5.32 8 6.64 8 8 8 C8 13.28 8 18.56 8 24 C6.68 24 5.36 24 4 24 C4 21.36 4 18.72 4 16 C2.68 16 1.36 16 0 16 C0 10.72 0 5.44 0 0 Z " fill="#E2E2E2" transform="translate(133,39)"/>
<path d="M0 0 C0.99 0 1.98 0 3 0 C3 2.64 3 5.28 3 8 C6.96 8 10.92 8 15 8 C15 9.32 15 10.64 15 12 C8.73 12 2.46 12 -4 12 C-4 10.68 -4 9.36 -4 8 C-2.68 8 -1.36 8 0 8 C0 5.36 0 2.72 0 0 Z " fill="#B2B2B2" transform="translate(71,130)"/>
<path d="M0 0 C7.92 0 15.84 0 24 0 C24 1.32 24 2.64 24 4 C16.08 4 8.16 4 0 4 C0 2.68 0 1.36 0 0 Z " fill="#9C9C9C" transform="translate(70,0)"/>
<path d="M0 0 C2.31 0 4.62 0 7 0 C7 1.32 7 2.64 7 4 C5.68 4 4.36 4 3 4 C3.165 4.680625 3.33 5.36125 3.5 6.0625 C4.07089059 9.4164822 4.06659023 12.60389805 4 16 C2.68 16 1.36 16 0 16 C0 14.68 0 13.36 0 12 C-1.32 12 -2.64 12 -4 12 C-4 10.68 -4 9.36 -4 8 C-2.68 8 -1.36 8 0 8 C0 5.36 0 2.72 0 0 Z " fill="#8E8E8E" transform="translate(20,16)"/>
<path d="M0 0 C6.6 0 13.2 0 20 0 C20 1.32 20 2.64 20 4 C13.4 4 6.8 4 0 4 C0 2.68 0 1.36 0 0 Z " fill="#888888" transform="translate(90,103)"/>
<path d="M0 0 C1.32 0 2.64 0 4 0 C4 5.28 4 10.56 4 16 C2.68 16 1.36 16 0 16 C0 10.72 0 5.44 0 0 Z " fill="#7C7C7C" transform="translate(0,79)"/>
<path d="M0 0 C1.32 0 2.64 0 4 0 C4 5.28 4 10.56 4 16 C2.68 16 1.36 16 0 16 C0 10.72 0 5.44 0 0 Z " fill="#999999" transform="translate(137,75)"/>
<path d="M0 0 C1.32 0 2.64 0 4 0 C4 5.28 4 10.56 4 16 C2.68 16 1.36 16 0 16 C0 10.72 0 5.44 0 0 Z " fill="#464646" transform="translate(12,55)"/>
<path d="M0 0 C1.32 0 2.64 0 4 0 C4 5.28 4 10.56 4 16 C2.68 16 1.36 16 0 16 C0 10.72 0 5.44 0 0 Z " fill="#CECECE" transform="translate(0,51)"/>
<path d="M0 0 C2.64 0 5.28 0 8 0 C8 1.32 8 2.64 8 4 C9.32 4 10.64 4 12 4 C12 5.32 12 6.64 12 8 C9.36 8 6.72 8 4 8 C4 6.68 4 5.36 4 4 C2.68 4 1.36 4 0 4 C0 2.68 0 1.36 0 0 Z " fill="#B6B6B6" transform="translate(102,8)"/>
<path d="M0 0 C3.96 0 7.92 0 12 0 C12 2.64 12 5.28 12 8 C10.68 8 9.36 8 8 8 C8 6.68 8 5.36 8 4 C5.36 4 2.72 4 0 4 C0 2.68 0 1.36 0 0 Z " fill="#606060" transform="translate(90,4)"/>
<path d="M0 0 C5.28 0 10.56 0 16 0 C16 1.32 16 2.64 16 4 C10.72 4 5.44 4 0 4 C0 2.68 0 1.36 0 0 Z " fill="#9B9B9B" transform="translate(47,0)"/>
<path d="M0 0 C1.32 0 2.64 0 4 0 C4 1.32 4 2.64 4 4 C5.32 4 6.64 4 8 4 C8 5.32 8 6.64 8 8 C4.37 8 0.74 8 -3 8 C-3 6.68 -3 5.36 -3 4 C-2.01 4 -1.02 4 0 4 C0 2.68 0 1.36 0 0 Z " fill="#393939" transform="translate(117,118)"/>
<path d="M0 0 C1.32 0 2.64 0 4 0 C4 1.32 4 2.64 4 4 C6.31 4 8.62 4 11 4 C11 5.32 11 6.64 11 8 C7.37 8 3.74 8 0 8 C0 5.36 0 2.72 0 0 Z " fill="#6A6A6A" transform="translate(20,118)"/>
<path d="M0 0 C3.96 0 7.92 0 12 0 C12 1.32 12 2.64 12 4 C8.04 4 4.08 4 0 4 C0 2.68 0 1.36 0 0 Z " fill="#929292" transform="translate(74,138)"/>
<path d="M0 0 C2.64 0 5.28 0 8 0 C8 2.64 8 5.28 8 8 C6.68 8 5.36 8 4 8 C4 6.68 4 5.36 4 4 C2.68 4 1.36 4 0 4 C0 2.68 0 1.36 0 0 Z " fill="#4F4F4F" transform="translate(27,126)"/>
<path d="M0 0 C1.32 0 2.64 0 4 0 C4 3.96 4 7.92 4 12 C2.68 12 1.36 12 0 12 C0 8.04 0 4.08 0 0 Z " fill="#000000" transform="translate(0,122)"/>
<path d="M0 0 C1.32 0 2.64 0 4 0 C4 3.96 4 7.92 4 12 C2.68 12 1.36 12 0 12 C0 8.04 0 4.08 0 0 Z " fill="#DDDDDD" transform="translate(86,99)"/>
<path d="M0 0 C1.32 0 2.64 0 4 0 C4 3.96 4 7.92 4 12 C2.68 12 1.36 12 0 12 C0 8.04 0 4.08 0 0 Z " fill="#787878" transform="translate(121,75)"/>
<path d="M0 0 C1.32 0 2.64 0 4 0 C4 3.96 4 7.92 4 12 C2.68 12 1.36 12 0 12 C0 8.04 0 4.08 0 0 Z " fill="#000000" transform="translate(137,51)"/>
<path d="M0 0 C5.28 0 10.56 0 16 0 C16 0.99 16 1.98 16 3 C10.72 3 5.44 3 0 3 C0 2.01 0 1.02 0 0 Z " fill="#959595" transform="translate(31,36)"/>
<path d="M0 0 C1.32 0 2.64 0 4 0 C4 1.32 4 2.64 4 4 C5.32 4 6.64 4 8 4 C8 5.32 8 6.64 8 8 C5.36 8 2.72 8 0 8 C0 5.36 0 2.72 0 0 Z " fill="#A9A9A9" transform="translate(125,28)"/>
<path d="M0 0 C3.96 0 7.92 0 12 0 C12 1.32 12 2.64 12 4 C8.04 4 4.08 4 0 4 C0 2.68 0 1.36 0 0 Z " fill="#5B5B5B" transform="translate(90,24)"/>
<path d="M0 0 C1.32 0 2.64 0 4 0 C4 0.99 4 1.98 4 3 C5.32 3 6.64 3 8 3 C8 4.32 8 5.64 8 7 C5.36 7 2.72 7 0 7 C0 4.69 0 2.38 0 0 Z " fill="#707070" transform="translate(12,111)"/>
<path d="M0 0 C2.31 0 4.62 0 7 0 C7 1.32 7 2.64 7 4 C5.68 4 4.36 4 3 4 C3 5.32 3 6.64 3 8 C2.01 8 1.02 8 0 8 C0 5.36 0 2.72 0 0 Z " fill="#777777" transform="translate(114,16)"/>
<path d="M0 0 C2.31 0 4.62 0 7 0 C7 1.32 7 2.64 7 4 C5.68 4 4.36 4 3 4 C3 5.32 3 6.64 3 8 C2.01 8 1.02 8 0 8 C0 5.36 0 2.72 0 0 Z " fill="#262626" transform="translate(20,16)"/>
<path d="M0 0 C1.32 0 2.64 0 4 0 C4 1.32 4 2.64 4 4 C3.01 4.33 2.02 4.66 1 5 C0.67 5.99 0.34 6.98 0 8 C-1.32 8 -2.64 8 -4 8 C-4 6.68 -4 5.36 -4 4 C-2.68 4 -1.36 4 0 4 C0 2.68 0 1.36 0 0 Z " fill="#454545" transform="translate(86,71)"/>
<path d="M0 0 C2.64 0 5.28 0 8 0 C8 1.32 8 2.64 8 4 C5.36 4 2.72 4 0 4 C0 2.68 0 1.36 0 0 Z " fill="#A4A4A4" transform="translate(90,134)"/>
<path d="M0 0 C2.64 0 5.28 0 8 0 C8 1.32 8 2.64 8 4 C5.36 4 2.72 4 0 4 C0 2.68 0 1.36 0 0 Z " fill="#5D5D5D" transform="translate(102,130)"/>
<path d="M0 0 C2.64 0 5.28 0 8 0 C8 1.32 8 2.64 8 4 C5.36 4 2.72 4 0 4 C0 2.68 0 1.36 0 0 Z " fill="#ACACAC" transform="translate(106,126)"/>
<path d="M0 0 C2.64 0 5.28 0 8 0 C8 1.32 8 2.64 8 4 C5.36 4 2.72 4 0 4 C0 2.68 0 1.36 0 0 Z " fill="#252525" transform="translate(35,114)"/>
<path d="M0 0 C1.32 0 2.64 0 4 0 C4 2.64 4 5.28 4 8 C2.68 8 1.36 8 0 8 C0 5.36 0 2.72 0 0 Z " fill="#B1B1B1" transform="translate(129,103)"/>
<path d="M0 0 C1.32 0 2.64 0 4 0 C4 2.64 4 5.28 4 8 C2.68 8 1.36 8 0 8 C0 5.36 0 2.72 0 0 Z " fill="#939393" transform="translate(133,95)"/>
<path d="M0 0 C1.32 0 2.64 0 4 0 C4 2.64 4 5.28 4 8 C2.68 8 1.36 8 0 8 C0 5.36 0 2.72 0 0 Z " fill="#808080" transform="translate(86,91)"/>
<path d="M0 0 C1.32 0 2.64 0 4 0 C4 2.64 4 5.28 4 8 C2.68 8 1.36 8 0 8 C0 5.36 0 2.72 0 0 Z " fill="#BEBEBE" transform="translate(82,79)"/>
<path d="M0 0 C2.64 0 5.28 0 8 0 C8 1.32 8 2.64 8 4 C5.36 4 2.72 4 0 4 C0 2.68 0 1.36 0 0 Z " fill="#737373" transform="translate(27,83)"/>
<path d="M0 0 C1.32 0 2.64 0 4 0 C4 2.64 4 5.28 4 8 C2.68 8 1.36 8 0 8 C0 5.36 0 2.72 0 0 Z " fill="#686868" transform="translate(0,79)"/>
<path d="M0 0 C1.32 0 2.64 0 4 0 C4 2.64 4 5.28 4 8 C2.68 8 1.36 8 0 8 C0 5.36 0 2.72 0 0 Z " fill="#C6C6C6" transform="translate(137,75)"/>
<path d="M0 0 C2.64 0 5.28 0 8 0 C8 1.32 8 2.64 8 4 C5.36 4 2.72 4 0 4 C0 2.68 0 1.36 0 0 Z " fill="#C9C9C9" transform="translate(8,71)"/>
<path d="M0 0 C1.32 0 2.64 0 4 0 C4 2.64 4 5.28 4 8 C2.68 8 1.36 8 0 8 C0 5.36 0 2.72 0 0 Z " fill="#888888" transform="translate(137,63)"/>
<path d="M0 0 C1.32 0 2.64 0 4 0 C4 2.64 4 5.28 4 8 C2.68 8 1.36 8 0 8 C0 5.36 0 2.72 0 0 Z " fill="#858585" transform="translate(12,55)"/>
<path d="M0 0 C2.64 0 5.28 0 8 0 C8 1.32 8 2.64 8 4 C5.36 4 2.72 4 0 4 C0 2.68 0 1.36 0 0 Z " fill="#BABABA" transform="translate(102,55)"/>
<path d="M0 0 C1.32 0 2.64 0 4 0 C4 2.64 4 5.28 4 8 C2.68 8 1.36 8 0 8 C0 5.36 0 2.72 0 0 Z " fill="#999999" transform="translate(0,51)"/>
<path d="M0 0 C1.32 0 2.64 0 4 0 C4 2.64 4 5.28 4 8 C2.68 8 1.36 8 0 8 C0 5.36 0 2.72 0 0 Z " fill="#989898" transform="translate(47,43)"/>
<path d="M0 0 C1.32 0 2.64 0 4 0 C4 2.64 4 5.28 4 8 C2.68 8 1.36 8 0 8 C0 5.36 0 2.72 0 0 Z " fill="#7B7B7B" transform="translate(16,43)"/>
<path d="M0 0 C1.32 0 2.64 0 4 0 C4 2.64 4 5.28 4 8 C2.68 8 1.36 8 0 8 C0 5.36 0 2.72 0 0 Z " fill="#B6B6B6" transform="translate(133,39)"/>
<path d="M0 0 C1.32 0 2.64 0 4 0 C4 2.64 4 5.28 4 8 C2.68 8 1.36 8 0 8 C0 5.36 0 2.72 0 0 Z " fill="#A1A1A1" transform="translate(4,39)"/>
<path d="M0 0 C1.32 0 2.64 0 4 0 C4 2.64 4 5.28 4 8 C2.68 8 1.36 8 0 8 C0 5.36 0 2.72 0 0 Z " fill="#A0A0A0" transform="translate(121,20)"/>
<path d="M0 0 C2.64 0 5.28 0 8 0 C8 1.32 8 2.64 8 4 C5.36 4 2.72 4 0 4 C0 2.68 0 1.36 0 0 Z " fill="#747474" transform="translate(82,20)"/>
<path d="M0 0 C2.64 0 5.28 0 8 0 C8 1.32 8 2.64 8 4 C5.36 4 2.72 4 0 4 C0 2.68 0 1.36 0 0 Z " fill="#454545" transform="translate(70,16)"/>
<path d="M0 0 C2.64 0 5.28 0 8 0 C8 1.32 8 2.64 8 4 C5.36 4 2.72 4 0 4 C0 2.68 0 1.36 0 0 Z " fill="#7C7C7C" transform="translate(31,8)"/>
<path d="M0 0 C2.64 0 5.28 0 8 0 C8 1.32 8 2.64 8 4 C5.36 4 2.72 4 0 4 C0 2.68 0 1.36 0 0 Z " fill="#818181" transform="translate(39,4)"/>
<path d="M0 0 C2.64 0 5.28 0 8 0 C8 1.32 8 2.64 8 4 C5.36 4 2.72 4 0 4 C0 2.68 0 1.36 0 0 Z " fill="#A8A8A8" transform="translate(70,0)"/>
<path d="M0 0 C2.64 0 5.28 0 8 0 C8 1.32 8 2.64 8 4 C5.36 4 2.72 4 0 4 C0 2.68 0 1.36 0 0 Z " fill="#717171" transform="translate(47,0)"/>
<path d="M0 0 C2.31 0 4.62 0 7 0 C7 1.32 7 2.64 7 4 C4.69 4 2.38 4 0 4 C0 2.68 0 1.36 0 0 Z " fill="#2B2B2B" transform="translate(20,142)"/>
<path d="M0 0 C2.31 0 4.62 0 7 0 C7 1.32 7 2.64 7 4 C4.69 4 2.38 4 0 4 C0 2.68 0 1.36 0 0 Z " fill="#8D8D8D" transform="translate(24,122)"/>
<path d="M0 0 C2.31 0 4.62 0 7 0 C7 1.32 7 2.64 7 4 C4.69 4 2.38 4 0 4 C0 2.68 0 1.36 0 0 Z " fill="#DDDDDD" transform="translate(71,118)"/>
<path d="M0 0 C2.31 0 4.62 0 7 0 C7 1.32 7 2.64 7 4 C4.69 4 2.38 4 0 4 C0 2.68 0 1.36 0 0 Z " fill="#D9D9D9" transform="translate(63,0)"/>
<path d="M0 0 C0.99 0 1.98 0 3 0 C3 2.64 3 5.28 3 8 C2.01 8 1.02 8 0 8 C0 5.36 0 2.72 0 0 Z " fill="#A6A6A6" transform="translate(71,130)"/>
<path d="M0 0 C2.64 0 5.28 0 8 0 C8 0.99 8 1.98 8 3 C5.36 3 2.72 3 0 3 C0 2.01 0 1.02 0 0 Z " fill="#E0E0E0" transform="translate(125,36)"/>
<path d="M0 0 C2.64 0 5.28 0 8 0 C8 0.99 8 1.98 8 3 C5.36 3 2.72 3 0 3 C0 2.01 0 1.02 0 0 Z " fill="#8A8A8A" transform="translate(31,36)"/>
<path d="M0 0 C0.99 0 1.98 0 3 0 C3 2.64 3 5.28 3 8 C2.01 8 1.02 8 0 8 C0 5.36 0 2.72 0 0 Z " fill="#5D5D5D" transform="translate(67,8)"/>
</svg>
