<?xml version="1.0" encoding="utf-8"?>
<!-- Generator: Adobe Illustrator 14.0.0, SVG Export Plug-In  -->
<!DOCTYPE svg PUBLIC "-//W3C//DTD SVG 1.1//EN" "http://www.w3.org/Graphics/SVG/1.1/DTD/svg11.dtd" [
	<!ENTITY ns_flows "http://ns.adobe.com/Flows/1.0/">
]>
<svg version="1.1"
	 xmlns="http://www.w3.org/2000/svg" xmlns:xlink="http://www.w3.org/1999/xlink" xmlns:a="http://ns.adobe.com/AdobeSVGViewerExtensions/3.0/"
	 x="0px" y="0px" width="85px" height="85px" viewBox="-1.701 -1.702 85 85" enable-background="new -1.701 -1.702 85 85"
	 xml:space="preserve">
<defs>
</defs>
<path fill="#13336D" d="M22.869,74.382c-0.234-0.035-0.679-0.146-1.123-0.406c-0.497-0.291-0.83-0.662-0.966-1.166
	c-0.118-0.446-0.029-1,0.279-1.527c0.591-1.008,1.699-1.35,2.801-0.705c0.38,0.223,0.632,0.485,0.733,0.639l-0.316,0.293
	c-0.125-0.188-0.31-0.376-0.641-0.57c-0.799-0.468-1.62-0.262-2.116,0.586c-0.502,0.858-0.302,1.656,0.468,2.106
	c0.278,0.163,0.492,0.233,0.618,0.241l0.59-1.009l-0.662-0.388l0.205-0.352l1.082,0.634L22.869,74.382z"/>
<path fill="#13336D" d="M25.077,75.63l0.66-1.527l-0.213-2.549l0.518,0.225l0.063,1.205c0.013,0.328,0.026,0.594,0.027,0.891
	l0.01,0.005c0.195-0.194,0.421-0.375,0.672-0.589l0.932-0.774l0.508,0.22l-2.058,1.56l-0.662,1.532L25.077,75.63z"/>
<path fill="#13336D" d="M31.589,75.817c-0.377,1.289-1.344,1.757-2.276,1.484c-0.97-0.284-1.415-1.256-1.082-2.394
	c0.35-1.194,1.294-1.767,2.27-1.48C31.503,73.722,31.917,74.697,31.589,75.817z M28.733,75.043
	c-0.237,0.809-0.024,1.652,0.724,1.871c0.747,0.219,1.377-0.366,1.627-1.22c0.221-0.754,0.07-1.646-0.716-1.875
	C29.583,73.589,28.973,74.223,28.733,75.043z M31.093,72.729l-0.785,0.448l-0.347-0.102l0.616-0.498L31.093,72.729z M31.89,72.963
	l-0.785,0.448l-0.347-0.102l0.617-0.498L31.89,72.963z"/>
<path fill="#13336D" d="M33.672,74.398c0.252-0.006,0.615,0.018,0.944,0.07c0.518,0.084,0.841,0.241,1.035,0.49
	c0.157,0.202,0.226,0.485,0.177,0.788c-0.082,0.506-0.448,0.793-0.861,0.868l-0.002,0.018c0.268,0.148,0.396,0.452,0.42,0.869
	c0.036,0.559,0.064,0.946,0.119,1.108l-0.502-0.081c-0.042-0.125-0.074-0.465-0.096-0.963c-0.025-0.553-0.199-0.786-0.637-0.874
	l-0.457-0.074l-0.27,1.676l-0.485-0.079L33.672,74.398z M33.873,76.239l0.496,0.08c0.518,0.084,0.894-0.156,0.965-0.599
	c0.081-0.499-0.234-0.773-0.748-0.856c-0.234-0.037-0.398-0.046-0.485-0.037L33.873,76.239z"/>
<path fill="#13336D" d="M45.811,75.233L45.8,75.234l-0.581,0.442l-0.151-0.372l0.73-0.552l0.419-0.061l0.54,3.74l-0.476,0.069
	L45.811,75.233z"/>
<path fill="#13336D" d="M49.847,74.244c-0.1,0.021-0.222,0.066-0.353,0.125c-0.722,0.332-0.959,1.001-0.875,1.629l0.011-0.003
	c0.105-0.282,0.353-0.556,0.743-0.663C50,75.16,50.57,75.51,50.764,76.215c0.186,0.674-0.086,1.41-0.826,1.615
	c-0.751,0.206-1.412-0.262-1.673-1.211c-0.198-0.717-0.108-1.35,0.146-1.807c0.212-0.377,0.553-0.67,0.983-0.85
	c0.136-0.061,0.254-0.1,0.341-0.123L49.847,74.244z M50.289,76.383c-0.145-0.521-0.519-0.756-0.959-0.635
	c-0.289,0.08-0.512,0.334-0.568,0.639c-0.012,0.064-0.015,0.137,0.01,0.227c0.17,0.598,0.565,0.973,1.072,0.832
	C50.252,77.334,50.432,76.904,50.289,76.383z"/>
<path fill="#13336D" d="M53.039,76.84l-0.112-0.293l0.224-0.502c0.545-1.195,0.77-1.805,0.564-2.336
	c-0.138-0.358-0.429-0.627-0.939-0.43c-0.311,0.119-0.507,0.381-0.612,0.578l-0.277-0.279c0.155-0.291,0.438-0.58,0.826-0.73
	c0.738-0.283,1.25,0.117,1.443,0.622c0.251,0.651-0.005,1.354-0.45,2.349l-0.169,0.363l0.004,0.011l1.533-0.591l0.152,0.396
	L53.039,76.84z"/>
<path fill="#13336D" d="M57.302,71.177c-0.093,0.042-0.201,0.114-0.315,0.2c-0.633,0.482-0.717,1.187-0.496,1.781l0.01-0.006
	c0.039-0.298,0.221-0.618,0.579-0.81c0.573-0.306,1.206-0.09,1.55,0.557c0.329,0.616,0.227,1.395-0.452,1.757
	c-0.687,0.365-1.435,0.054-1.897-0.813c-0.35-0.657-0.402-1.294-0.253-1.796c0.124-0.414,0.392-0.775,0.772-1.044
	c0.119-0.089,0.227-0.153,0.306-0.196L57.302,71.177z M58.202,73.167c-0.254-0.478-0.671-0.624-1.074-0.409
	c-0.265,0.142-0.427,0.438-0.414,0.748c0.003,0.064,0.015,0.137,0.059,0.219c0.298,0.546,0.766,0.824,1.229,0.577
	C58.376,74.103,58.457,73.645,58.202,73.167z"/>
<circle fill="none" stroke="#13336D" stroke-width="0.744" cx="40.814" cy="40.823" r="31.014"/>
<path fill="#13336D" d="M57.725,28.764c0.044,0.137-0.062,0.106,0.044,0.242c0.044,0.075,0.15,0.106,0.226,0.166
	c-0.088,0.242,0.013,0.288,0.211,0.379c-0.075,0.286-0.044,0.257,0.193,0.379c-0.044,0.255,0,0.332,0.229,0.407
	c-0.031,0.256-0.079,0.197,0.102,0.364c0.211,0.212-0.058-0.077,0.167,0.392l-0.211,0.075c-0.317-0.196-0.149-0.044-0.393-0.06
	c-0.132,0-0.163-0.195-0.433-0.03c-0.074-0.06-0.122-0.272-0.467-0.047l-0.061-0.059c-0.103-0.106-0.164-0.091-0.344-0.046
	c-0.138-0.166-0.106-0.166-0.393-0.091l-0.132-0.134l-0.305,0.013c-0.088-0.165-0.137-0.194-0.361-0.106
	c-0.18-0.149-0.075-0.211-0.436-0.119l-0.119-0.152l-0.242,0.031c-0.133-0.289,0-0.227-0.388-0.196
	c-0.106-0.183-0.12-0.167-0.362-0.137c-0.075-0.105-0.044-0.121-0.198-0.167c-0.225-0.06-0.057,0.015-0.194-0.15h-0.268
	c-0.014-0.121,0-0.092-0.062-0.183l-0.27-0.015l-0.075-0.166l-0.304-0.03c0.031-0.227,0.048,0.03,0.255-0.318
	c0.261,0.016,0.38,0,0.455-0.211c0.224,0.046,0.374,0,0.422-0.212c0.226,0.076,0.256,0.031,0.375-0.121
	c0.299,0.075,0.344-0.075,0.48-0.286c0.256,0.196,0.36-0.016,0.468-0.181c0.207,0.106,0.405,0,0.462-0.211
	c0.375,0.074,0.181-0.016,0.375-0.078c0.273-0.075,0.106,0.106,0.392-0.165l0.349,0.135c0.013,0.363,0.237,0.213,0.287,0.394
	c0.043,0.167,0.013,0.227,0.268,0.317C57.394,28.689,57.469,28.674,57.725,28.764 M24.312,28.024c0.225-0.075,0.315-0.075,0.3-0.348
	c0.121-0.045,0.225-0.075,0.346-0.119c0.149,0.119,0.09,0.119,0.361,0.149c0.209,0.031,0.075,0.152,0.481,0.106
	c0.074,0.168,0.074,0.168,0.27,0.196c0.375,0.077-0.015,0.137,0.512,0.229c0.194,0.029,0.028-0.046,0.178,0.075
	c0.168,0.15,0.108,0.106,0.346,0.119c0.167,0.016,0.121,0.106,0.258,0.183c0.134,0.045,0.134,0,0.224,0.031
	c0.12,0.029-0.015-0.031,0.06,0.029c0.39,0.257,0.196,0.015,0.452,0.211c0.149,0.106,0.149,0.106,0.359,0.077
	c0.046,0.135,0.015,0.075,0.108,0.181c0.119,0.121,0.119,0.015,0.088,0.152c-0.031,0.044-0.555,0.286-0.571,0.302
	c-0.315,0.211-0.075,0.044-0.284,0.134c-0.121,0.062-0.092,0.077-0.137,0.106c-0.121,0.062-0.059-0.013-0.196,0.046
	c-0.194,0.06,0,0.091-0.299,0.137c-0.271,0.046-0.075,0.09-0.331,0.137c-0.165,0.043-0.031-0.032-0.227,0.09
	c-0.075,0.044,0.031,0-0.075,0.044c-0.196,0.062-0.24-0.044-0.299,0.152c-0.39-0.062-0.241,0.031-0.436,0.091
	c-0.181,0.059-0.3-0.06-0.362,0.167c-0.196-0.031-0.225-0.062-0.374,0.028c-0.212,0.122-0.075,0.016-0.287,0.047
	c-0.075,0-0.09,0.03-0.134,0.044c-0.256,0.123-0.121-0.044-0.452,0.181c-0.405-0.15-0.256,0.03-0.496,0.03
	c-0.059,0-0.075-0.03-0.181-0.013c-0.224,0.044-0.013,0.106-0.299,0.075c-0.421-0.031-0.062,0.227-0.483,0.015
	c0.075-0.195,0.018-0.288,0.106-0.394c0.15-0.18,0.15-0.013,0.121-0.377c0.181-0.062,0.256-0.165,0.21-0.379
	c0.211-0.044,0.315-0.121,0.242-0.346c0.178-0.123,0.269-0.167,0.225-0.425c0.24-0.09,0.24-0.106,0.255-0.392
	c0.3-0.075,0.21-0.106,0.271-0.333C24.206,28.266,24.372,28.341,24.312,28.024 M57.469,27.358c0.181-0.015,0.212-0.09,0.3-0.196
	c0.238,0.031,0.198,0.09,0.374-0.121c0.212,0.046,0.318,0.093,0.394-0.121c0.272,0.077,0.286,0.121,0.436-0.09
	c0.226,0.09,0.3,0.09,0.423-0.091c0.194,0.152,0.33,0.046,0.405-0.106c0.256,0.106,0.282,0.183,0.481-0.059
	c0.375,0.134,0.3-0.031,0.436-0.031c0.058,0,0.058,0.06,0.208,0.044c0.092,0,0.167-0.075,0.228-0.104
	c0.164,0.135,0.207,0.104,0.389,0c0.181,0.12,0.243,0.12,0.437,0.029c0.225,0.152,0.149,0.091,0.405,0.031
	c0.106,0.121,0.167,0.165,0.361,0.09c0.093,0.093,0,0.075,0.149,0.122c0.106,0.015,0.198-0.016,0.273-0.029
	c0.119,0.165,0.225,0.194,0.48,0.134c0.102,0.106,0.031,0.197,0.433,0.152c0.104,0.225,0.153,0.212,0.467,0.181
	c0.123,0.181,0.092,0.181,0.361,0.181c0.018,0.257,0.074,0.242,0.317,0.288c0.088,0.196,0.014,0.181,0.237,0.258
	c0,0.24,0.031,0.24,0.199,0.33c-0.075,0.181-0.063,0.228,0.075,0.349c0,0-0.019,0-0.019,0.015c-0.013,0.06-0.044,0-0.057,0.135
	c-0.019,0.092,0.025,0.136,0.057,0.182c-0.119,0.122-0.146,0.06-0.105,0.287c-0.089,0.061-0.07,0-0.15,0.121
	c-0.163,0.258-0.194,0.075-0.194,0.348c-0.075,0-0.118,0-0.18,0.044l-0.075,0.093c0,0.013-0.018,0.013-0.018,0.013
	c-0.088,0.077-0.07,0.018-0.176,0.106c-0.075,0.077-0.063,0.092-0.094,0.182c-0.18-0.03-0.149-0.046-0.286,0.06
	c-0.225,0.152-0.044-0.044-0.344,0.168c-0.075,0.044,0,0.015-0.088,0.028c-0.33,0.062-0.168,0.093-0.304,0.153
	c-0.163,0.046-0.207-0.075-0.331,0.149c-0.088-0.044-0.105-0.09-0.225-0.013c-0.193,0.106-0.013,0.044-0.225,0.059
	c-0.212,0-0.167,0.077-0.255,0.106c-0.12,0.046-0.045-0.059-0.27,0.016c-0.242,0.105,0.03,0.092-0.256,0.075
	c-0.185-0.013-0.137,0.017-0.256,0.075c-0.198,0.107-0.048-0.166-0.454,0.136c-0.163-0.075-0.312-0.091-0.418,0.077
	c-0.225-0.09-0.256-0.152-0.48,0.016c-0.074-0.047-0.105-0.093-0.211-0.093c-0.138,0-0.168,0.062-0.226,0.077
	c-0.149,0-0.018-0.077-0.242-0.061c-0.118,0-0.149,0.061-0.256,0.077c-0.119-0.212,0.019-0.184-0.224-0.349
	c0.075-0.332,0.017-0.257-0.164-0.438c0.089-0.211-0.017-0.333-0.18-0.408c0.057-0.317,0.013-0.257-0.182-0.394
	c0.044-0.333,0-0.287-0.256-0.423c0.014-0.287,0.031-0.287-0.211-0.377V28.81v-0.031c0-0.12,0.031-0.242-0.256-0.332
	c0.013-0.271-0.062-0.331-0.299-0.408c0.044-0.255,0.013-0.317-0.273-0.363C57.513,27.495,57.544,27.526,57.469,27.358
	 M23.951,27.676c-0.225,0.092-0.3,0.121-0.212,0.394c-0.178,0.031-0.284,0.075-0.299,0.242v0.15
	c-0.241,0.137-0.256,0.106-0.212,0.423c-0.285,0.121-0.194,0.152-0.194,0.379c-0.302,0.106-0.331,0.165-0.256,0.439
	c-0.24,0.09-0.211,0.105-0.211,0.363c-0.256,0.15-0.194,0.166-0.179,0.436c-0.24,0.137-0.165,0.091-0.196,0.333
	c0,0.091-0.15,0.333-0.24,0.364c-0.09,0.031-0.075-0.016-0.18-0.031c-0.181-0.015-0.107,0.031-0.227,0.046
	c-0.104,0-0.088-0.046-0.21-0.046c-0.165-0.031-0.165,0.046-0.255,0.046c-0.075,0-0.075-0.046-0.181-0.061
	c-0.165-0.029-0.135,0.015-0.225,0.015c-0.15,0.015-0.031-0.015-0.18-0.06c-0.197-0.062-0.15,0-0.272,0
	c-0.134,0-0.118-0.107-0.405-0.09c-0.044,0-0.436-0.092-0.496-0.105c-0.24-0.107-0.315-0.032-0.42-0.093
	c-0.106-0.06-0.032-0.06-0.197-0.091c-0.224-0.028-0.088,0-0.255-0.075c-0.119-0.046-0.135,0-0.241-0.03l-0.33-0.104
	c-0.24-0.093,0.106-0.031-0.331-0.152l-0.601-0.273c-0.075-0.029-0.346-0.258-0.421-0.317c-0.33-0.227-0.029,0-0.299-0.289
	c-0.135-0.135-0.212-0.302-0.287-0.467c-0.075-0.196,0.152-0.121-0.09-0.392l0.046-0.062c0.059-0.165-0.016-0.15,0.029-0.256
	c0.09-0.152,0.152-0.075,0.09-0.332c0.15-0.091,0.106-0.016,0.227-0.196c0.06-0.093-0.015-0.016,0.06-0.078
	c0.195-0.149,0.134,0.078,0.314-0.255c0.272-0.031,0.212-0.031,0.315-0.227c0.272,0.013,0.349,0.028,0.437-0.183
	c0.331-0.029,0.286,0.046,0.436-0.196c0.48,0.105,0.287-0.09,0.48-0.106c0.227,0,0.106,0.091,0.362-0.044
	c0.09-0.062-0.06-0.015,0.059-0.031c0.197-0.046,0.197,0.091,0.362-0.121c0.075,0.031,0.134,0.075,0.227,0.075
	c0.163,0,0.103-0.044,0.209-0.106c0.09,0.075,0.121,0.106,0.284,0.062c0.227-0.046-0.044-0.062,0.243-0.016
	c0.18,0.016,0.165-0.046,0.24-0.059c0.103-0.016,0.09,0.088,0.268,0.075c0.181,0,0.106-0.091,0.243-0.016
	c0.15,0.075,0.059,0.075,0.256,0.075c0.33-0.03,0.255,0.197,0.555,0.016c0.3,0.242,0.33,0.106,0.465,0.121
	c0.136,0.015,0.031,0.015,0.136,0.075c0.225,0.09,0.196-0.044,0.331,0.031c0.194,0.106,0.015,0.106,0.315,0.106
	c0.105,0,0.059,0,0.15,0.046c0.227,0.121,0.211,0.013,0.332,0.044c0.06,0.015,0.029,0.046,0.15,0.09
	c0.241,0.09,0.106-0.075,0.284,0.075c0.137,0.121,0.137,0.121,0.377,0.092C24.01,27.435,23.981,27.466,23.951,27.676 M50.374,28.357
	c0.075,0.046,0.149,0.046,0.243,0.046l0.044,0.196c0.404,0.09,0.255,0.075,0.33,0.196c0.118,0.183,0.181,0.062,0.331,0.167
	c0,0.106,0,0.135-0.075,0.181c-0.168,0.106-0.287-0.137-0.454,0.196c-0.326-0.167-0.27,0-0.433,0.062
	c-0.136,0.044-0.229-0.077-0.404,0.104c-0.256-0.122-0.256-0.151-0.467,0.061c-0.182-0.152-0.257-0.077-0.406,0.031
	c-0.286-0.152-0.242,0.015-0.405-0.016c-0.093-0.015-0.049-0.076-0.229-0.03c-0.074,0.015-0.119,0.061-0.194,0.09
	c-0.149-0.227-0.299-0.106-0.462-0.015c-0.035-0.06-0.11-0.318-0.441-0.091c-0.163-0.106-0.07-0.227-0.402-0.152l-0.093-0.18h-0.269
	c-0.121-0.197-0.016-0.197-0.331-0.197c-0.016-0.227-0.075-0.227-0.315-0.227c-0.03-0.301-0.107-0.074-0.256-0.317
	c-0.121-0.212-0.121-0.121-0.209-0.196c-0.121-0.121,0.014-0.227-0.258-0.286c0-0.258,0-0.212-0.163-0.333
	c0.073-0.227-0.018-0.243-0.046-0.318c-0.075-0.18,0.106-0.227-0.104-0.422c0.057-0.199,0.104-0.137,0.028-0.408
	c0.284-0.183-0.015-0.124,0.182-0.379c0.103-0.137,0.044-0.152,0.073-0.258l0.029-0.044c0,0,0.031-0.031,0.031-0.046
	c0.119-0.165,0.028-0.122,0.105-0.212c0.104-0.121,0.163,0.031,0.194-0.302c0.227,0.016,0.196-0.046,0.273-0.196
	c0.072-0.031,0.132-0.015,0.225-0.077c0.15-0.119-0.047-0.075,0.15-0.134c0.117-0.031,0.117,0.015,0.239-0.062
	c0.15-0.106-0.044-0.06,0.165-0.121c0.182-0.044,0.299-0.121,0.377,0.031c0.117,0.257,0,0.136,0.271,0.286
	c0.013,0.258,0.044,0.304,0.282,0.364c-0.014,0.258,0.017,0.211,0.149,0.301c0.198,0.137-0.013,0.137,0.198,0.289
	c0.242,0.181,0.075,0,0.211,0.24c0.075,0.137,0.163,0.106,0.269,0.183c0.045,0.091,0,0.075,0.075,0.166
	c0.075,0.09,0.093,0.075,0.123,0.105c0.103,0.137-0.03,0.168,0.15,0.287c0.058,0.03,0.102,0.03,0.149,0.062
	c0.15,0.12-0.03,0.211,0.375,0.286c0.031,0.348,0.194,0.214,0.313,0.348c0.136,0.137-0.071,0.152,0.41,0.273
	c0.101,0.227-0.063,0.075,0.207,0.241c0.092,0.061,0.017,0,0.075,0.077C50.299,28.312,50.192,28.297,50.374,28.357 M33.571,25.983
	c0.359-0.106,0.179-0.149,0.315-0.333c0.106-0.149,0.106,0.032,0.209-0.27c0.093-0.212,0.137-0.047,0.243-0.212
	c0.105-0.183-0.031-0.106,0.119-0.227c0.09-0.075,0.074,0.015,0.167-0.152c0.044-0.106,0.013-0.106,0.073-0.196l0.571,0.196
	c0.242,0.077,0.092-0.044,0.242,0.106c0.15,0.152,0.09,0.061,0.256,0.121c0.075,0.196,0.075,0.183,0.163,0.227
	c0.255,0.137,0.03-0.044,0.18,0.183c0.09,0.134,0.031,0.013,0.106,0.103c0.15,0.153-0.016,0.227,0.256,0.289v0.258l0.136,0.103
	c-0.046,0.196-0.061,0.196,0.091,0.32c-0.075,0.286-0.06,0.181,0.044,0.408c-0.196,0.121-0.119,0.15-0.104,0.33
	c0,0.152,0,0.031-0.062,0.152c-0.09,0.168,0.016,0.137-0.075,0.258c-0.24,0.286-0.015,0.121-0.196,0.333
	c-0.015,0.015-0.028,0.028-0.059,0.059c-0.075,0.091-0.016,0.077-0.106,0.152c-0.075,0.059-0.091,0.031-0.165,0.121
	c-0.091,0.119,0,0.075-0.104,0.15c-0.046,0.046-0.077,0.031-0.15,0.106c-0.077,0.077-0.061,0.106-0.107,0.137
	c-0.06,0.059-0.135,0.044-0.194,0.105c-0.122,0.075-0.016,0.047-0.122,0.121c-0.165,0.106-0.209-0.015-0.268,0.241
	c-0.122-0.014-0.152-0.029-0.256,0.031c-0.077,0.03-0.046,0.03-0.09,0.061c-0.377,0.241,0.013-0.152-0.408,0.196
	c-0.088-0.031-0.181-0.059-0.284-0.031c-0.106,0.031-0.062,0.031-0.122,0.076l-0.03,0.03c0,0-0.013,0.031-0.013,0.016l-0.016,0.015
	c-0.405-0.183-0.33,0-0.483,0.015c-0.178,0.016-0.088-0.167-0.434,0.031c-0.18-0.198-0.24-0.046-0.376-0.077
	c-0.06,0-0.075-0.059-0.194-0.059c-0.15,0-0.062,0.059-0.196,0.029c-0.075-0.016-0.075-0.076-0.21-0.076
	c-0.167-0.015-0.121,0.031-0.227,0.016c-0.046-0.016-0.09-0.075-0.211-0.091c-0.15-0.015-0.104,0.016-0.24,0.047
	c-0.119-0.183-0.119-0.122-0.344-0.137c-0.211,0-0.016-0.092-0.318-0.121c-0.105-0.015-0.118,0.015-0.193-0.062
	c-0.062-0.059-0.062-0.09-0.016-0.15c0.075-0.09,0.135,0,0.287-0.196c0.165-0.227,0.149-0.03,0.315-0.198
	c0.209-0.196-0.075-0.029,0.255-0.196c0.135-0.075,0.075-0.044,0.135-0.119c0.225-0.348,0.165,0.044,0.33-0.364
	c0.421-0.046,0.24-0.196,0.421-0.317c0.031-0.015,0.091-0.031,0.135-0.059c0.211-0.124,0-0.124,0.242-0.23
	c0.315-0.134,0.075-0.165,0.315-0.302c0.029-0.015,0.044-0.015,0.075-0.03c0.196-0.104,0.075-0.165,0.196-0.287
	c0.044-0.059,0.044-0.015,0.104-0.105c0.165-0.212-0.075-0.106,0.211-0.256C33.54,26.195,33.525,26.179,33.571,25.983
	 M52.269,28.749c-0.088,0-0.242,0.015-0.348-0.06c-0.132-0.121,0.031-0.134-0.313-0.165c-0.092-0.227-0.092-0.212-0.374-0.227
	c-0.079-0.242-0.137-0.227-0.409-0.227c0.018-0.273-0.044-0.181-0.226-0.273c-0.282-0.121,0.031-0.256-0.479-0.271
	c0-0.243-0.088-0.227-0.182-0.258c-0.286-0.134,0-0.271-0.405-0.318c0.014-0.224-0.018-0.255-0.225-0.301
	c-0.018,0-0.018-0.016-0.018-0.016c-0.119-0.348-0.15-0.18-0.282-0.317c-0.136-0.137,0.106-0.09-0.286-0.271
	c-0.137-0.454-0.149-0.168-0.3-0.363c-0.106-0.137,0.026-0.228-0.317-0.302c0-0.227-0.03-0.289-0.237-0.333
	c0-0.318-0.075-0.273-0.287-0.379c-0.031-0.031-0.018-0.09-0.079-0.196c-0.088-0.181-0.119-0.016-0.059-0.181
	c0.12-0.046,0.199,0.06,0.35-0.046c0.119-0.091-0.049-0.075,0.163-0.091c0.075,0,0.044,0.047,0.167,0.016
	c0.164-0.044,0.026-0.016,0.105-0.044c0.119-0.062,0.04-0.016,0.207,0.013c0.163,0.015,0.212-0.059,0.3-0.15
	c0.123,0.044,0.138,0.121,0.336,0.075c0.325-0.09,0.101,0,0.373-0.015c0.134,0,0.12-0.047,0.194-0.047
	c0.15-0.013,0.031,0.137,0.494-0.028c0.136,0.136,0.185,0.227,0.423,0.075c0.15,0.077,0.013,0.105,0.226,0.136
	c0.104,0.016,0.197-0.031,0.285-0.046c0.15,0.167,0.198,0.167,0.405,0.075c0.164,0.198,0.164,0.183,0.481,0.121
	c0.061,0.183,0.181,0.198,0.423,0.137c0.119,0.136,0.149,0.196,0.406,0.165c0.073,0.273,0.18,0.152,0.355,0.244
	c0.154,0.075,0,0.166,0.38,0.15c0.062,0.227,0.118,0.227,0.374,0.212c0.136,0.167,0.062,0.196,0.393,0.196
	c0.118,0.227,0.044,0.227,0.392,0.243c0.04,0.226,0.163,0.242,0.406,0.257c0.075,0.317,0.193,0.15,0.33,0.302
	c0.102,0.106-0.018,0.167,0.375,0.242c0.044,0.256,0.088,0.272,0.348,0.318c0.101,0.227-0.031,0.106,0.194,0.24
	c-0.063,0.061-0.075,0.016-0.182,0.046c-0.136,0.047-0.092,0.062-0.153,0.122c-0.177,0.134-0.07-0.107-0.433,0.134
	c-0.149,0.108-0.304-0.06-0.479,0.319c-0.273-0.136-0.318-0.046-0.481,0.166c-0.211-0.06-0.316,0-0.379,0.167
	c-0.237-0.031-0.361,0.029-0.436,0.212c-0.374-0.077-0.286,0.134-0.449,0.196c-0.15,0.044-0.287-0.075-0.394,0.211
	c-0.18-0.046-0.193-0.121-0.374,0.045C52.388,28.826,52.524,28.735,52.269,28.749 M31.451,23.974
	c0.179,0.059,0.256,0.121,0.421,0.028c0.016-0.013,0.046-0.028,0.046-0.044l0.045-0.031c0.195,0.137,0.149,0.106,0.376,0.075
	c0.21-0.028,0.15,0.062,0.359,0.016c0.3-0.044,0.06-0.016,0.3,0.062c0.181,0.059,0.227-0.016,0.317-0.062
	c0.075,0.077,0.106,0.121,0.21,0.136c0.121,0.016,0.165-0.044,0.211-0.044c0.075,0.044,0.119,0.119,0.225,0.135
	c0.196,0.015,0.106-0.119,0.227,0.046c0.015,0.152-0.016,0-0.121,0.165c-0.06,0.106,0,0.016-0.047,0.106
	c-0.09,0.212-0.134,0.046-0.224,0.242c-0.031,0.077-0.016,0.122,0,0.212c-0.135,0.031-0.21,0.075-0.256,0.212
	c-0.119,0.257-0.09,0.077-0.24,0.226c-0.181,0.181,0.044,0.106-0.209,0.258c-0.243,0.15-0.15,0.364-0.181,0.271
	c0,0,0,0.016-0.016,0.031c-0.196,0.062-0.255,0.09-0.255,0.333c-0.331,0.044-0.212,0.119-0.315,0.271
	c-0.047,0.077-0.091,0.046-0.166,0.121c-0.076,0.062-0.076,0.152-0.105,0.181c-0.09,0.077-0.09,0.015-0.181,0.092
	c-0.104,0.09-0.059,0.106-0.134,0.181c-0.062,0.059-0.093,0.031-0.165,0.106l-0.122,0.196c-0.165,0.031-0.225,0.031-0.315,0.136
	c-0.121,0.153,0.075,0.031-0.121,0.122c-0.06,0.031-0.119,0.031-0.163,0.059c-0.212,0.137,0.073,0.108-0.258,0.212
	c-0.165,0.046-0.165,0.092-0.225,0.242c-0.407,0.031-0.242,0.106-0.376,0.242c-0.075,0.06-0.135,0.016-0.225,0.091
	c-0.134,0.106,0.028,0.075-0.166,0.136c-0.075,0.029-0.436-0.015-0.482-0.046c-0.044-0.044-0.119-0.211-0.404-0.106
	c-0.392-0.333-0.226-0.121-0.467-0.196c-0.165-0.046-0.03-0.196-0.511-0.18c-0.15-0.304-0.211-0.122-0.39-0.243
	c-0.136-0.09-0.015-0.196-0.407-0.167c-0.119-0.212-0.225-0.271-0.481-0.15c-0.255-0.41-0.224-0.212-0.449-0.273
	c-0.152-0.031-0.031-0.15-0.331-0.137c-0.152,0-0.015,0.062-0.152-0.044c-0.134-0.106-0.134-0.152-0.361-0.075
	c0.09-0.168,0.121-0.046,0.181-0.317c0.225-0.016,0.317-0.075,0.317-0.302c0.315-0.033,0.269-0.062,0.405-0.243
	c0.06-0.077,0.016-0.046,0.106-0.077c0.359-0.165,0.075-0.165,0.39-0.271c0.044-0.015,0.075-0.015,0.106-0.031
	c0.134-0.075,0.075-0.105,0.181-0.165c0.209-0.105,0.196,0.044,0.345-0.242c0.285-0.016,0.285,0,0.39-0.227
	c0.331,0,0.285,0.015,0.406-0.196c0.421,0,0.225-0.137,0.465-0.212c0.09-0.031,0.077,0.016,0.165-0.046
	c0.181-0.09-0.013-0.075,0.302-0.121c0.194-0.031,0.15-0.075,0.225-0.212c0.317,0.031,0.286,0.047,0.467-0.15
	c0.39,0.106,0.271,0,0.465-0.092c0.209,0.062,0.346,0.015,0.421-0.134c0.227,0.074,0.348,0.134,0.48-0.047
	C31.211,24.139,31.317,24.185,31.451,23.974 M36.772,20.21c0.029-0.273,0.179-0.74,0.256-1.028c0.044-0.197,0.044-0.377,0.209-0.439
	c0.122-0.044,0.346-0.106,0.481-0.135c1.293-0.347,3.278-0.438,4.601-0.304c0.51,0.062,1.682,0.258,2.089,0.454
	c0.074,0.317,0.346,1.179,0.346,1.452c-0.947,0.408-2.961,0.529-4.014,0.545C39.732,20.768,37.718,20.525,36.772,20.21
	 M34.697,23.716c-0.134-0.016-0.15-0.029-0.3-0.029c-0.18,0.013-0.09,0-0.24-0.062c-0.165-0.074-0.15,0-0.287-0.015
	c-0.149-0.015-0.09-0.075-0.255-0.105c-0.24-0.032-0.06,0.061-0.287-0.06c-0.209-0.106-0.237,0.015-0.405,0
	c-0.044-0.015-0.075-0.031-0.134-0.046c-0.181-0.029-0.181,0-0.287,0.09c-0.178-0.119-0.344-0.227-0.539-0.044
	c-0.406-0.212-0.302-0.031-0.468,0c-0.194,0.015-0.269-0.183-0.465,0.075c-0.271-0.121-0.361-0.106-0.511,0.105
	c-0.106-0.03-0.196-0.074-0.315-0.043c-0.181,0.028-0.136,0.075-0.227,0.165c-0.3-0.075-0.24,0-0.45,0.077
	c-0.224,0.075-0.27-0.077-0.42,0.178c-0.346-0.075-0.317-0.028-0.467,0.183c-0.375-0.031-0.284,0.091-0.496,0.212
	c-0.3-0.091-0.287,0.121-0.465,0.165c-0.165,0.046-0.165,0.046-0.271,0.183c-0.24,0-0.346,0.029-0.405,0.227
	c-0.302,0-0.287,0.044-0.421,0.256c-0.272,0.03-0.393,0.03-0.406,0.288c-0.33,0.06-0.256,0.075-0.408,0.24
	c-0.075,0.091-0.103,0.046-0.224,0.106c-0.165,0.093-0.075,0.183-0.24,0.258c-0.24,0.121-0.165,0.106-0.3,0.255
	c-0.075,0.078-0.137,0.062-0.212,0.108c-0.105,0.075-0.059,0.104-0.121,0.225c-0.509,0.108-0.374-0.15-0.736-0.013
	c-0.284-0.32-0.181-0.152-0.389-0.183c-0.181-0.013-0.106-0.196-0.437-0.059c-0.075-0.091-0.137-0.152-0.315-0.152
	c-0.256,0.015-0.137-0.091-0.346-0.106c-0.212-0.016-0.106,0.09-0.331-0.029c-0.165-0.105-0.255-0.031-0.39,0.013
	c-0.108-0.18-0.242-0.18-0.422-0.059c-0.375-0.243-0.254-0.059-0.466-0.091c-0.196-0.015-0.149-0.211-0.436,0.032
	c-0.256-0.259-0.284-0.078-0.436-0.062c-0.181,0.03-0.225-0.197-0.465,0.046c-0.24-0.152-0.225-0.121-0.436-0.016
	c-0.119,0.047-0.091-0.046-0.256-0.03c-0.181,0.015-0.09,0.077-0.21,0.136c-0.345-0.136-0.317,0-0.526,0.075
	c-0.165,0.046-0.24-0.031-0.405,0.121c-0.046,0.044,0,0.016-0.06,0.06c-0.286-0.106-0.346,0.031-0.467,0.137
	c-0.165,0.121-0.33-0.016-0.436,0.257c-0.405-0.03-0.271,0.091-0.465,0.212c-0.15,0.075-0.196,0.015-0.287,0.18
	c-0.043,0.075-0.043,0.091-0.134,0.122c-0.181,0.09-0.181,0.075-0.152,0.286c-0.165,0.077-0.225,0.091-0.253,0.258
	c-0.031,0.181,0.059,0.046-0.047,0.196c-0.044,0.062-0.075,0.046-0.134,0.168c0,0.271,0.09,0.075,0.059,0.33
	c-0.015,0.122-0.059,0.046-0.015,0.198c0.031,0.075,0,0,0.046,0.06l0.044,0.075c0,0,0,0.015,0.016,0.015
	c-0.091,0.196-0.106,0.379,0.15,0.423c-0.044,0.243-0.044,0.348,0.196,0.423l0.028,0.258l0.227,0.031
	c0.016,0.242,0.075,0.227,0.3,0.242c0.046,0.212,0.075,0.24,0.315,0.212c0.093,0.24,0.062,0.134,0.258,0.196
	c0.134,0.044,0.088,0.15,0.238,0.181c0.242,0.046,0.09-0.06,0.271,0.092c0.121,0.103,0.18,0.075,0.346,0.029l0.075,0.165
	l0.271-0.029c0.165,0.256,0.209,0.075,0.436,0.197c0.121,0.044,0.225,0.059,0.3-0.016c0.211,0.273,0.136,0.121,0.376,0.152
	c0.195,0.014,0.045,0.15,0.452,0.029c0.088,0.152,0.225,0.196,0.421,0.105c0.359,0.243,0.24,0.062,0.48,0.122
	c0.135,0.03,0.166,0.121,0.331,0.09c0.181-0.044,0-0.075,0.209-0.028c0.121,0.043,0.062,0.075,0.227,0.043
	c0.166-0.015,0.06-0.059,0.209-0.03c0.075,0.015,0.119,0.062,0.24,0.077l0.06,0.121c0.015,0.059,0.031,0.091,0.046,0.137
	c-0.227,0.271-0.074,0.18-0.134,0.376c-0.031,0.091-0.062,0.029-0.075,0.197c-0.031,0.182,0.044,0.092-0.018,0.227
	c-0.013,0.046-0.074,0.075-0.074,0.183c-0.014,0.09,0.046,0.134,0.061,0.194c0.031,0.151-0.136,0.061,0.013,0.453
	c-0.209,0.258-0.044,0.212-0.057,0.379c0,0.075-0.046,0.106-0.046,0.227c0,0.196,0.059,0.106,0.046,0.24
	c-0.017,0.093-0.062,0.062-0.046,0.227c0.029,0.183,0.075,0.077,0.046,0.199c-0.031,0.075-0.092,0.043-0.077,0.196
	c0,0.149,0.046,0.136,0.106,0.224c-0.106,0.108-0.121,0.152-0.075,0.304c0.046,0.15,0.059-0.046,0.015,0.135
	c-0.015,0.062-0.046,0.092-0.046,0.183c-0.015,0.286,0.121-0.031,0.031,0.302c-0.059,0.196,0,0.18,0.059,0.301
	c-0.165,0.212-0.105,0.106-0.059,0.379c0.029,0.15-0.091,0.197,0.015,0.377l0.014,0.016c0,0,0.017,0.015,0.017,0.031
	c-0.167,0.255-0.031,0.255-0.031,0.392c0.014,0.18-0.165,0.031,0.044,0.454c-0.193,0.09-0.18,0.273,0,0.348
	c-0.09,0.196-0.209,0.332-0.03,0.498c-0.045,0.106-0.075,0.09-0.075,0.227c-0.013,0.106,0.03,0.165,0.075,0.258
	c-0.556,0.059-0.902,0.361-1.051,0.799c-0.285,0.831-0.045,0.893,0.121,1.512c-0.243,0.09-0.227,0.212-0.181,0.469
	c0.103,0.046,0.225,0.06,0.33,0.093c-0.165,0.405-0.315,0.421-0.57,1.238c-0.346,1.133-0.181,3.429-0.978,4.232l-0.075,0.075
	l-0.014,0.016l-0.046,0.06l2.314-0.016c0,0.242,0.062,0.242,0.046,0.453c-0.046,0.336,0.09,0.182,0,0.439
	c-0.09,0.286,0.059,0.136,0,0.423c-0.059,0.317,0.09,0.152,0.029,0.423c-0.06,0.288,0.092,0.228,0.015,0.451
	c-0.09,0.261,0.06,0.199,0,0.472c-0.075,0.273,0.106,0.138,0.015,0.393c-0.105,0.287,0,0.243,0.091,0.41
	c-0.091,0.075-0.15,0.207-0.106,0.317l0.09,0.118c-0.224,0.362-0.705,0.199-1.006,0.921c-0.285,0.666-0.045,1.045,0.18,1.499
	c-0.196,0.15-0.377,0.106-0.361,0.467c0.136,0.213,0.181,0.123,0.33,0.229c-0.689,0.873-0.705,3.266-1.007,4.381
	c-0.193,0.714-0.584,0.956-0.661,1.15h5.502c-0.059-0.168-0.377-0.119-0.661-1.15c-0.152-0.56-0.18-0.996-0.271-1.587
	c-0.09-0.723-0.165-1.63-0.496-2.283c-0.074-0.163-0.271-0.484-0.317-0.647c0.181-0.014,0.333-0.079,0.362-0.242
	c0.059-0.273-0.135-0.273-0.272-0.348c0.723-0.789,0.272-1.996-0.78-2.301c0.119-0.405-0.015-0.225-0.015-0.419
	c-0.015-0.168,0.15-0.08,0-0.44c-0.06-0.137-0.015-0.014,0.015-0.181c0.045-0.212,0-0.137-0.03-0.273
	c-0.031-0.198,0.165-0.119-0.031-0.469c0.121-0.18,0.077-0.24,0.031-0.422c-0.045-0.183,0.105-0.183,0-0.409
	c-0.106-0.24-0.031-0.028,0.015-0.271c0.031-0.167-0.046-0.152-0.046-0.271c0.015-0.137,0.077-0.044,0.015-0.273
	c-0.059-0.273-0.015-0.031,0.016-0.242c0.03-0.149-0.031-0.212-0.06-0.317h2.45c-0.405-0.424-0.496-0.514-0.648-1.148
	c-0.283-1.196-0.193-2.721-0.735-3.825c-0.106-0.227-0.225-0.423-0.331-0.649c0.225,0,0.436-0.075,0.496-0.226
	c0.136-0.334-0.15-0.348-0.271-0.409c0.452-0.846,0.121-2.056-0.901-2.192c0.015-0.165,0.149-0.227-0.06-0.407
	c0.09-0.197,0.15-0.24-0.031-0.439c0.106-0.227,0.227-0.181,0.016-0.452c0.15-0.136,0.224-0.288,0.03-0.469
	c0.181-0.168,0.106-0.242,0-0.408c0.106-0.167,0.091-0.227-0.015-0.363c0.06-0.06,0.135-0.136,0.121-0.286
	c-0.061-0.289-0.106,0.059-0.031-0.318c0.031-0.183-0.046-0.121,0-0.32c0.06-0.24,0.06-0.103-0.015-0.301
	c-0.075-0.181,0.046-0.075,0.046-0.287c-0.015-0.136-0.046-0.09-0.061-0.167c-0.016-0.104,0-0.016,0.046-0.134
	c0.075-0.274-0.062-0.184-0.031-0.318c0.075-0.317,0.015-0.183,0-0.333c-0.015-0.121,0.09-0.077,0.031-0.302
	c-0.091-0.319,0-0.09,0.015-0.303c0.014-0.241-0.106-0.091-0.046-0.287c0.106-0.256,0.031-0.121,0.015-0.302
	c0-0.121,0.075-0.075,0.075-0.273c0-0.135-0.059,0.031,0-0.165c0.06-0.166,0.106-0.137,0.075-0.333
	c-0.015-0.152-0.044-0.031,0.016-0.152c0.105-0.196,0.105-0.075,0.015-0.271c0.21-0.211,0.119-0.423,0.359-0.485
	c0.271-0.06,0.496,0,0.633-0.15c0.256,0.09,0.256,0.106,0.436-0.075c0.405,0.135,0.33-0.061,0.48-0.046
	c0.346,0.031,0.194,0.137,0.45-0.121c0.093,0.031,0.108,0.046,0.227,0.031c0.075-0.031,0.031-0.046,0.106-0.077
	c0.015,0,0.015-0.016,0.028-0.016h0.031c0.091-0.028,0.075,0.016,0.209-0.044c0.091-0.031,0.077-0.106,0.166-0.121
	c0.09,0.015,0.18,0.046,0.27,0.015c0.166-0.046,0.062-0.046,0.166-0.152c0.361,0.106,0.181-0.088,0.511-0.105
	c0.121,0,0.106,0.017,0.181-0.045c0.15-0.075-0.016-0.03,0.15-0.075c0.09-0.015,0.09,0.029,0.211-0.03
	c0.106-0.047,0.044-0.062,0.137-0.093c0.103-0.013,0.238,0.018,0.343-0.09c0.135-0.134,0.166-0.059,0.316-0.181
	c0.181-0.106-0.029-0.044,0.181-0.09c0.36-0.06,0.136-0.06,0.301-0.137c0.209-0.106,0.166,0.047,0.3-0.211l0.271,0.015
	c0.121-0.181,0.015-0.152,0.196-0.211c0.06-0.016,0.075,0,0.163-0.047c0.137-0.09,0.09-0.119,0.255-0.18
	c0.408-0.122,0.259-0.075,0.499,0.046c0.149,0.09,0.194,0.015,0.33,0.075c0.134,0.046,0.088,0.106,0.315,0.106
	c0.377,0,0.225,0.242,0.646,0.09c0.224,0.273,0.242,0.015,0.496,0.152c0.09,0.046,0.061,0.059,0.195,0.075
	c0.137,0,0.137-0.044,0.212-0.029c0.119,0,0.06,0.029,0.194,0.059c0.15,0.016,0.137-0.03,0.212-0.03
	c0.134,0,0.044,0.015,0.165,0.062c0.15,0.059,0.24-0.047,0.374-0.016c0.302,0.106,0.227,0,0.393-0.016
	c0.134,0,0.196,0.15,0.405,0.047c0.15-0.077-0.031-0.077,0.165-0.077c0.075,0,0.106,0.03,0.227,0.015
	c0.044-0.059,0.06-0.09,0.104-0.167c0.299,0.031,0.346,0.108,0.467-0.135c0.238,0.016,0.331,0.016,0.406-0.182
	c0.434,0,0.224-0.075,0.405-0.181c0.075-0.062,0.106-0.016,0.224-0.075c0.166-0.075,0.032-0.075,0.15-0.167
	c0.062-0.06,0.106-0.031,0.197-0.091c0.121-0.075,0.059-0.106,0.121-0.165c0.149-0.168,0.284,0,0.284-0.333
	c0.165-0.059,0.211-0.059,0.227-0.227c0.013-0.137-0.062-0.046,0.029-0.137c0.075-0.074,0.075,0.016,0.134-0.12
	c0.121-0.21-0.088-0.091,0.093-0.302c0.134-0.137,0.103-0.166,0.028-0.333c0.287-0.166,0.121-0.243,0.15-0.483
	c0-0.015,0.031-0.062,0.046-0.121c0.075-0.242-0.075-0.183-0.046-0.363c0.046-0.408,0.015-0.197-0.06-0.408
	c-0.103-0.286,0.119-0.181-0.211-0.454c0.016-0.181,0.016-0.24-0.104-0.333c-0.18-0.134-0.075-0.075-0.165-0.302
	c-0.075-0.196-0.136-0.059-0.271-0.196c-0.075-0.09,0.015-0.061-0.09-0.121c-0.044-0.046-0.137-0.046-0.181-0.09
	c-0.106-0.212-0.106-0.318-0.419-0.258c-0.196-0.483-0.573-0.121-0.467-0.498c0.091-0.348,0.044-0.136,0.166-0.333
	c0.074-0.105,0.028-0.121,0.059-0.196c0.031-0.152,0.09-0.077,0.165-0.333c0.031-0.12,0.135-0.227,0.227-0.319
	c0.359,0.015,0.796,0.077,1.188,0.092c1.201,0.075,2.507,0.243,3.71,0.181c0.841-0.044,1.686,0,2.541-0.074
	c0.406-0.032,0.812-0.032,1.22-0.062c0.404-0.045,0.808-0.104,1.202-0.122c0.028,0.062,0.044,0.106,0.091,0.168
	c0.057,0.09,0.103,0.09,0.118,0.152c0.06,0.134-0.091,0.211,0.226,0.302c-0.044,0.317,0.031,0.211,0.136,0.363
	c0.013,0.045,0,0,0.031,0.075l0.119,0.271c-0.347-0.015-0.452,0.137-0.558,0.364c-0.437,0.015-0.256,0.165-0.496,0.271
	c-0.253,0.121-0.136,0.106-0.271,0.227c-0.073,0.077-0.091,0.031-0.181,0.106c-0.104,0.105-0.042,0.121-0.104,0.211
	c-0.105,0.168-0.24,0.046-0.212,0.454c-0.315,0.289-0.15,0.121-0.178,0.469c-0.017,0.196-0.124,0.106-0.094,0.364
	c0.031,0.271-0.149,0.181-0.013,0.451c0.06,0.152,0.06,0.016,0.029,0.152c-0.089,0.408,0.09,0.122,0.061,0.455
	c-0.018,0.271,0.106,0.196,0.18,0.363c0.029,0.075-0.014,0.104,0.046,0.225c0.059,0.092,0.09,0.077,0.151,0.137
	c0.044,0.075,0.029,0.136,0.075,0.226c0.119,0.256,0.165-0.077,0.256,0.362c0.464,0.198,0.104,0.198,0.418,0.288
	c0.259,0.091,0.061,0,0.212,0.15c0.074,0.093,0.149,0.093,0.271,0.093c0.134,0.286,0.088,0.134,0.346,0.24
	c0.179,0.062,0.06,0.214,0.449,0.137c0.091,0.136,0.15,0.288,0.421,0.165l0.049,0.031c0.177,0.183,0.163,0.136,0.388,0.136
	c0.149,0.015,0.044,0.165,0.437,0.062c0.238-0.062,0.013,0,0.224,0.028c0.213,0.016,0.168-0.028,0.287-0.059
	c0.181-0.062,0.014,0.016,0.226,0.031c0.148,0.013,0.136-0.047,0.242-0.047c0.101,0,0.101,0.047,0.255,0.032
	c0.146-0.016,0.105-0.078,0.256-0.062c0.101,0,0.119,0.062,0.269,0c0.15-0.06,0.063-0.106,0.182-0.09
	c0.132,0.015,0.149,0.074,0.343-0.047c0.149-0.09,0.168,0.031,0.375-0.044c0.092-0.046,0.092-0.09,0.185-0.152
	c0.256,0.168,0.3-0.031,0.45-0.106c0.105-0.059,0.03,0,0.149,0c0.225,0.016,0.149-0.121,0.361-0.121
	c0.242,0,0.074,0.121,0.437,0.091c0.057,0.198,0.119,0.198,0.36,0.167c0.089,0.196,0.089,0.227,0.362,0.227
	c0.058,0.18,0.119,0.227,0.33,0.18c0.15,0.259,0.014,0.091,0.3,0.181c0.075,0.016,0.014-0.013,0.075,0.031
	c0.136,0.108,0.149,0.077,0.282,0.137c0.11,0.044,0,0.015,0.11,0.09c0.118,0.09,0.206,0.044,0.344,0.015
	c0.119,0.181,0.148,0.197,0.392,0.152c0.194,0.287,0.256,0.045,0.463,0.195c0.119,0.092,0.167,0.092,0.33,0.045
	c0.106,0.153,0.124,0.259,0.41,0.122c0.119,0.137,0.132,0.242,0.388,0.152c0.167,0.15,0.137,0.181,0.405,0.106
	c0.075,0.09,0.031,0.121,0.181,0.136c0.123,0.029,0.211-0.03,0.286-0.077c0.182,0.196,0.212,0.137,0.438,0.062
	c0.299,0.348,0.269,0.028,0.523,0.134c0.226,0.078,0.167,0.016,0.317,0.046c0.181,0.032,0.105,0.045,0.375,0.045
	c0.062,0.123-0.013,0.046,0.105,0.123c-0.105,0.287-0.118,0.181,0.105,0.408c-0.092,0.196,0,0.209,0.027,0.361
	c0.03,0.108-0.014,0.046,0,0.183c0.018,0.119,0.062,0.15,0.093,0.196c0.043,0.137-0.063,0.075,0.03,0.364
	c0.074,0.194,0.013-0.031-0.014,0.178c-0.017,0.152,0.026,0.124,0.059,0.214c0.043,0.165-0.106,0.044,0,0.392
	c0.073,0.242,0.017-0.044-0.032,0.196c-0.026,0.183,0.032,0.121,0.032,0.227c0.017,0.136-0.015,0.016-0.045,0.168
	c-0.014,0.18,0.045,0.121,0.045,0.211c0,0.15-0.168,0.106,0.043,0.436c-0.118,0.199-0.118,0.229,0.018,0.439
	c-0.075,0.092-0.148,0.108-0.119,0.258c0.014,0.061,0.059,0.106,0.059,0.152c0.017,0.106-0.015,0.015-0.032,0.165
	c-0.043,0.227,0.075,0.136,0.032,0.317c-0.075,0.228-0.075,0.183,0.043,0.364c-0.043,0.075-0.058,0.046-0.088,0.15
	c-0.03,0.167,0.088,0.167,0.045,0.319c-0.075,0.241-0.032,0.15,0.017,0.346c0.013,0.121,0,0.046-0.049,0.137
	c-0.056,0.136,0,0.211,0.075,0.317c-0.088,0.09-0.118,0.212-0.043,0.348c0.017,0.015,0.029,0.047,0.029,0.047
	c0.044,0.059,0.014,0,0.044,0.075c-0.255,0.195-0.073,0.226-0.073,0.392c0.017,0.18-0.15,0.152,0.061,0.392
	c-0.256,0.227-0.678,0.062-1.035,0.802c-0.11,0.227-0.168,0.5-0.124,0.787c0.014,0.136,0.044,0.24,0.093,0.363l0.181,0.317
	c-0.167,0.044-0.304,0.135-0.26,0.362c0.018,0.105,0.079,0.151,0.137,0.195c0.044,0.016,0.075,0.033,0.105,0.046l0.137,0.063
	c-0.198,0.529-0.3,0.451-0.498,1.298c-0.313,1.33-0.119,2.904-0.96,3.946c-0.075,0.104-0.15,0.151-0.182,0.271h2.362
	c-0.049,0.198-0.031,0.242,0.075,0.377c-0.198,0.395,0,0.288-0.019,0.456c-0.013,0.211-0.161,0.104,0.063,0.451
	c-0.286,0.199-0.075,0.274-0.093,0.426c0,0.06-0.075,0.09-0.058,0.209c0,0.094,0.058,0.154,0.106,0.228
	c-0.092,0.151-0.106,0.258,0.013,0.395c-0.163,0.255-0.119,0.211,0.014,0.484c-0.225,0.088-0.075,0.313,0,0.454
	c-0.206,0.193-0.15,0.286-0.026,0.511c-0.965,0.154-1.521,1.195-1.023,2.239c-0.104,0.181-0.197,0.088-0.153,0.454
	c0.168,0.118,0.124,0.149,0.409,0.132c-0.062,0.124-0.105,0.181-0.167,0.304c-0.181,0.304-0.317,0.622-0.405,0.969
	c-0.15,0.499-0.198,1.028-0.27,1.574c-0.123,0.842-0.123,1.812-0.705,2.478c-0.062,0.088-0.167,0.136-0.18,0.241l5.469,0.044
	c-0.317-0.498-0.48-0.36-0.661-1.149c-0.405-1.662-0.181-2.961-1.084-4.442c0.242-0.193,0.528-0.093,0.424-0.573l-0.226-0.105
	c0.282-0.709,0.344-1.027-0.123-1.648c-0.207-0.287-0.508-0.304-0.675-0.454c-0.048-0.03-0.018,0-0.048-0.062
	c-0.133-0.242-0.045-0.193-0.013-0.317c0.073-0.272-0.12-0.181-0.032-0.392c0.105-0.287-0.026-0.225,0-0.41
	c0.018-0.119,0.075-0.013,0.045-0.212c-0.013-0.118-0.059-0.118-0.045-0.211c0.018-0.088,0.045-0.057,0.045-0.194
	c0-0.197-0.059-0.151-0.013-0.318c0.043-0.136-0.046-0.272,0-0.396c0.061-0.132,0.029-0.193,0-0.302
	c-0.059-0.178,0.104-0.119,0.013-0.39c-0.119-0.333,0.061-0.077,0.03-0.363c-0.014-0.139-0.043-0.061-0.043-0.212
	c0-0.105,0.029-0.105,0-0.273h2.48c-0.045-0.059-0.194-0.137-0.243-0.181c-0.842-0.711-0.555-3.054-1.185-4.702
	c-0.093-0.225-0.226-0.405-0.3-0.632c0.163-0.108,0.3-0.137,0.344-0.335c0.044-0.287-0.137-0.287-0.313-0.393
	c0.345-0.591,0.326-1.421-0.287-1.889c-0.092-0.062-0.136-0.121-0.255-0.167c-0.153-0.06-0.229-0.044-0.3-0.181
	c-0.031-0.106,0.146-0.211-0.031-0.379c0.163-0.392,0.133-0.211-0.017-0.573c0.167-0.167,0.061-0.152,0.031-0.363
	c-0.015-0.181,0.029-0.016,0.043-0.212c0.018-0.09-0.026-0.152-0.026-0.211c0-0.091,0.044-0.075,0.026-0.212
	c0-0.09-0.058-0.136-0.058-0.181c0-0.136,0.133-0.046,0.031-0.423c-0.048-0.198,0.059-0.076,0-0.394
	c-0.048-0.227,0,0.015,0.026-0.211c0.018-0.122-0.026-0.137-0.026-0.212c-0.017-0.121,0.044-0.031,0.044-0.212
	c0.015-0.136-0.044-0.121-0.031-0.211c0-0.258,0.119-0.075-0.044-0.439c0.075-0.106,0.133-0.273-0.048-0.376
	c0.123-0.259,0.167-0.062,0.048-0.379c-0.074-0.227,0.133,0.03-0.03-0.467c-0.018-0.078,0.062-0.184,0.03-0.305
	c-0.017-0.03-0.048-0.075-0.048-0.105c-0.013-0.106,0,0,0.018-0.091c0.074-0.227-0.03-0.227-0.018-0.423
	c0.031-0.149,0.048-0.09-0.013-0.242c-0.075-0.135-0.075-0.015-0.044-0.15c0.013-0.075,0.057-0.031,0.013-0.212
	c-0.031-0.107-0.062-0.077-0.075-0.182c-0.013-0.122,0.044-0.09-0.03-0.256c-0.132-0.273-0.088,0.059-0.027-0.363
	c0.314,0.061,0.282-0.062,0.402-0.062c0.123,0.015,0.123,0.077,0.334,0l0.133-0.013c0.092,0,0.075,0.059,0.256,0.013
	c0.136-0.029,0.078-0.091,0.211-0.075c0.167,0.015,0.299,0.105,0.392-0.122c0.3,0.091,0.331,0.078,0.525-0.105
	c0.211,0.196,0.242-0.029,0.51-0.015c0.212,0.015,0.138-0.029,0.256-0.091c0.15-0.09,0.031,0.031,0.226-0.015
	c0.181-0.044,0.031-0.075,0.225-0.091c0.229-0.015,0.079,0.031,0.242-0.075c0.212-0.121,0.317,0.122,0.45-0.196
	c0.211,0.059,0.334,0,0.405-0.181c0.348,0.045,0.242-0.123,0.423-0.167c0.119-0.031,0.181,0.031,0.269-0.105
	c0.093-0.137-0.013-0.06,0.106-0.107c0.18-0.074,0.075,0.047,0.242-0.136c0.057-0.075,0.193-0.106,0.256-0.181
	c0.132-0.211,0.057-0.09,0.225-0.211c0.105-0.091,0.057-0.196,0.132-0.287c0.137-0.152,0.137-0.092,0.092-0.348
	c0.349-0.061,0.106-0.273,0.163-0.454c0.168-0.423-0.044-0.165,0-0.423c0.05-0.165,0.05-0.227-0.088-0.348l-0.03-0.031
	c-0.119-0.15,0.118-0.302-0.33-0.436l-0.045-0.258c-0.093-0.031-0.137-0.062-0.286-0.077c-0.137-0.377-0.106-0.135-0.313-0.287
	c-0.198-0.134,0.059-0.149-0.454-0.195c-0.149-0.302-0.211-0.122-0.418-0.227c-0.075-0.045-0.031-0.106-0.181-0.153
	c-0.106-0.044-0.212-0.028-0.3,0c-0.137-0.044-0.079-0.119-0.255-0.165c-0.182-0.015-0.199,0-0.335-0.09
	c-0.177-0.106-0.238-0.016-0.357-0.016c-0.168,0-0.031,0-0.15-0.059c-0.105-0.046-0.241-0.016-0.33-0.031
	c-0.062-0.031-0.03-0.046-0.149-0.075c-0.181-0.031-0.181,0.06-0.331,0.044c-0.181-0.015-0.048-0.075-0.335-0.015
	c-0.255,0.046-0.075-0.106-0.361-0.044c-0.207,0.044-0.025,0.105-0.282,0.059c-0.242-0.044-0.181,0.046-0.317,0.062
	c-0.074,0-0.162-0.09-0.33-0.046c-0.27,0.105,0.048,0.121-0.286,0.062c-0.269-0.047-0.181,0.118-0.437,0.074
	c-0.089-0.015-0.075-0.031-0.163,0c-0.062,0.016-0.105,0.06-0.137,0.075c-0.149,0.062-0.3-0.059-0.463,0.152
	c-0.272-0.106-0.272-0.046-0.44,0.104c-0.251-0.165-0.282,0.033-0.401,0.062c-0.216,0.046-0.167-0.137-0.409,0.152
	c-0.225-0.093-0.225-0.047-0.375,0.046c-0.119,0.09-0.149,0.013-0.375,0c-0.149-0.243,0-0.227-0.374-0.304
	c0-0.271-0.137-0.287-0.393-0.302c0.014-0.243-0.105-0.302-0.349-0.318c-0.025-0.242-0.044-0.273-0.329-0.286
	c-0.146-0.077,0.03-0.09-0.134-0.196c-0.092-0.062-0.228-0.062-0.33-0.046c-0.062-0.106,0-0.137-0.105-0.212
	c-0.092-0.077-0.194-0.061-0.33-0.046l-0.049-0.227l-0.269-0.015c-0.12-0.181-0.149-0.227-0.449-0.181
	c-0.045-0.227-0.167-0.227-0.393-0.181l-0.044-0.061c-0.031-0.06-0.031-0.075-0.105-0.122c-0.089-0.059-0.182-0.044-0.286-0.015
	c-0.088-0.119-0.106-0.3-0.45-0.181c-0.063-0.031-0.092-0.106-0.15-0.134c-0.167-0.093-0.211-0.016-0.33-0.106
	c-0.093-0.077-0.193-0.093-0.361-0.031l-0.093-0.105c-0.132-0.106-0.313-0.016-0.449,0.015c-0.105-0.199-0.226-0.258-0.418-0.09
	c-0.168-0.109,0.044,0.028-0.106-0.093c-0.124-0.104-0.286-0.059-0.423,0.016c-0.106-0.091-0.225-0.243-0.463,0
	c0-0.016-0.019-0.032-0.019-0.016l-0.092-0.059c-0.146-0.091-0.282,0.015-0.432,0.075c-0.168-0.181-0.286-0.15-0.437,0
	c-0.225-0.091-0.272-0.091-0.468,0.105c-0.118-0.044-0.18-0.137-0.33-0.044c-0.057,0.029-0.044,0.059-0.119,0.091
	c-0.136,0.043,0,0-0.167,0c-0.212-0.016-0.149,0.059-0.282,0.121c-0.049,0.028-0.258,0-0.363-0.031
	c-0.029-0.106,0.031-0.152-0.075-0.274c-0.077-0.088-0.059-0.013-0.119-0.103c-0.046-0.092,0.017-0.062-0.151-0.289
	c-0.091-0.121-0.029,0-0.06-0.152c-0.06-0.242-0.104-0.105-0.165-0.271c0.149-0.106,1.247-0.196,1.546-0.242
	c1.609-0.243,6.073-1.042,6.554-2.614c0.304-0.997-0.962-1.632-1.652-1.996c-1.278-0.634-4.447-1.148-5.952-1.374
	c-2.225-0.349-4.583-0.529-6.899-0.454c-1.159,0.03-2.3,0.059-3.442,0.18c-2.599,0.289-3.757,0.5-6.266,1.104
	c-1.025,0.258-3.217,1.042-3.142,2.327c0.044,0.575,0.421,0.861,0.764,1.073c0.739,0.469,1.699,0.771,2.616,1.073
	c0.888,0.302,2.076,0.5,3.052,0.637c0.405,0.059,1.308,0.105,1.655,0.212c0.18,0.043,0,0.149-0.062,0.345
	c-0.045,0.183,0.03,0.031-0.106,0.168c-0.088,0.075-0.059,0.106-0.104,0.211c-0.046,0.137-0.09,0.047-0.165,0.197
	C34.697,23.582,34.712,23.61,34.697,23.716"/>
<path fill="#13336D" d="M50.567,44.955c0.168,0.103,0.38,0.874,0.454,1.147c0.163,0.588,0.437,1.058,0.449,1.133H50.33
	L50.567,44.955z M51.414,46.345c0.45-0.304,1.036-0.969,1.018-1.8c0.199,0.075,0.467,0.317,0.573,0.438
	c0.587,0.666,0.675,1.785,0.361,2.253h-1.502C51.714,46.979,51.484,46.676,51.414,46.345 M49.894,44.334l0.393,0.104
	c0.044,0.199-0.182,2.495-0.242,2.797l-0.419-0.016L49.894,44.334z M44.875,45.422c0-0.106,0.18-0.452,0.24-0.604
	c0.073-0.198,0.134-0.407,0.193-0.638c0.105-0.421,0-0.301,0.361-0.498c0.181-0.104,0.346-0.227,0.527-0.302
	c-0.092,0.681-0.092,0.558,0.239,1.045c-0.104,0.119-0.558,0.405-0.735,0.544C45.518,45.102,45.115,45.437,44.875,45.422
	 M49.846,44.197c-0.507-0.15-0.556-1.086-0.344-1.632c0.224-0.574,1.607-1.181,2.318,0.891c0.162,0.482,0.479,1.3,0.192,1.633
	c-0.136-0.271-0.224-0.65-0.361-0.952c-0.136-0.288-0.118-0.198,0-0.438c0.045-0.121,0.045-0.092-0.03-0.228
	c-0.03-0.077-0.075-0.137-0.118-0.195c-0.089,0.104-0.032,0.118-0.15,0.195c-0.137-0.227-0.229-0.5-0.375-0.573
	c-0.048,0.15-0.123,0.226-0.211,0.361c0.058,0.153,0.33,0.517,0.343,0.666c0.015,0.167-0.285,0.271,0.063,0.665
	c0.075-0.092,0.075-0.136,0.132-0.227c0.137,0.196,0.287,0.666,0.379,0.921c0.088,0.243,0.119,0.273-0.048,0.47
	c-0.089,0.09-0.177,0.211-0.344,0.271c-0.242-0.378-0.075-0.801-0.812-1.814c-0.105-0.15-0.36-0.18-0.572-0.242L49.846,44.197z
	 M42.363,43.987c0,0,0-0.018,0.015-0.03l0.103-0.137c0.063-0.075,0.106-0.138,0.152-0.213c0.137-0.136,0.992-0.86,1.158-0.969
	c-0.032,0.26-0.104,0.351-0.104,0.696c0,0.485,0.209,0.831,0.556,1.12c0.195,0.151,0.333,0.151,0.602,0.226
	c-0.062,0.259-0.3,0.635-0.437,0.816c-0.271,0.364-0.422,0.454-0.57,0.634c-0.932,1.089-2.616,1.543-2.436-0.724
	c0.045-0.515,0.449-1.527,0.677-1.783c0.091,0.075,0.21,0.302,0.24,0.408L42.363,43.987z M42.409,43.395
	c-0.137-0.104-0.468-0.769-0.483-1.026c0-0.467,0.287-0.74,0.587-0.905c0.784-0.454,0.572-0.393,0.888-0.137l0.751,0.544
	c0.091,0.075,0.047,0,0.091,0.105c-0.361,0.137-1.144,0.756-1.443,1.042L42.409,43.395z M50.872,41.749
	c0.013-0.346,0.149-2.115,0.237-2.267c1.204,0.696,2.227,3.188,2.059,5.246c-0.03-0.015-0.299-0.241-0.357-0.272
	c-0.136-0.106-0.242-0.182-0.379-0.274C52.133,43.97,52.102,42.46,50.872,41.749 M44,43.291c-0.061-0.407,0.077-0.846,0.348-1.027
	c0.63-0.438,2.344-1.271,3.034-1.165c0.436,0.062,0.392,0.65,0.15,0.906c-0.54,0.577-1.352,1.09-2.043,1.451
	c-0.091,0.047-0.151,0.091-0.24,0.137c-0.044,0.015-0.075,0.031-0.121,0.044l-0.091,0.063l-0.074,0.649
	c-0.419,0-0.752-0.287-0.827-0.589c0.166-0.136,1.202-0.938,1.444-0.998l0.09,0.271c0.163-0.044,0.225-0.09,0.346-0.181
	l-0.105-0.317c0.165-0.09,0.437-0.211,0.57-0.349c-0.028-0.136-0.06-0.227-0.134-0.316c-0.212,0.06-0.452,0.256-0.633,0.302
	l-0.165-0.242c-0.091,0.016-0.135,0.046-0.211,0.09c-0.029,0.016-0.061,0.031-0.089,0.046l-0.061,0.061l-0.015,0.017l0.164,0.256
	c-0.239,0.198-0.734,0.485-1.021,0.682C44.198,43.17,44.136,43.229,44,43.291 M46.708,38.56c0.3-0.092,0.573-0.273,0.749-0.5
	c0.348-0.392,0.167-0.634,0.436-0.8c0.063,0.256,0.119,0.62,0.199,0.891c0.105,0.469,0.343,0.531,0.449,0.637
	c-0.093,0.075-0.242,0.118-0.361,0.18c-0.287,0.167-0.661,0.5-0.868,0.725c-0.198,0.211-0.919,0.74-1.371,0.725
	c-0.118-0.165-0.09-0.227-0.181-0.392c-0.15,0.062-0.314,0.165-0.542,0.183c-0.209-1.272,0.3-0.924,0.271-2.043
	c0.333-0.075,0.361-0.302,0.708-0.075C46.48,38.287,46.587,38.483,46.708,38.56 M44.844,41.009c0.09,0.134,0.255,0.363,0.302,0.482
	c-0.708,0.379-0.514,0.348-1.085-0.061c-0.632-0.438-1.306-1.119-1.712-1.769c-0.227-0.361-0.467-0.694-0.542-1.209
	c0.617,0.107,1.099,0.53,1.534,0.879c0.511,0.392,0.78,0.663,1.172,1.207C44.646,40.691,44.738,40.857,44.844,41.009 M45.055,40.57
	l0.494-0.152l0.242,0.407c0.434-0.043,1.188-0.42,1.49-0.694c0.374-0.332,0.643-0.724,1.185-0.951
	c0.674-0.287,0.718,0.03,1.08-0.666c0.136-0.271,0.105-0.348,0.092-0.65c0.705,0.016,0.45,1.254,0.406,1.813
	c-0.075,0.712-0.15,1.453-0.212,2.178c-0.48,0.317-0.674,0.47-0.762,1.209c-0.142,0.969,0.493,1.392,0.507,1.466l-0.252,2.706
	l-5.248-0.016l-0.182-0.316c-0.044-0.136-0.074-0.213-0.09-0.362c0.194-0.09,0.676-0.634,0.841-0.832
	c0.469,0.152,0.812-0.15,1.278-0.483c0.362-0.256,0.752-0.513,1.098-0.756c-0.074-0.136-0.167-0.121-0.283-0.289
	c-0.303-0.421-0.362-0.904-0.031-1.163c0.418-0.316,1.714-1.133,1.203-1.934c-0.454-0.679-2.197,0.18-2.497,0.257
	C45.324,41.143,45.084,40.707,45.055,40.57 M45.249,36.579c0.421-0.438,1.49-0.363,2.102-0.257c0.212,0.742,0.079,0.379,0.423,0.666
	c-0.074,0.151-0.149,0.195-0.272,0.301c-0.163,0.168-0.119,0.787-0.736,0.877c-0.088-0.075-0.193-0.196-0.284-0.271
	c-0.735-0.544-0.721-0.015-1.143-0.061c-0.061-0.318,0.18-0.741,0.195-1.027C45.414,36.67,45.354,36.776,45.249,36.579
	 M49.052,38.71c-0.242-0.075-0.423-0.242-0.524-0.407c-0.153-0.212-0.198-0.348-0.241-0.666c-0.164-1.163-0.494-0.799-0.604-1.194
	c0.26,0.016,1.278,0.438,1.354,0.756C49.184,37.774,49.594,38.259,49.052,38.71 M48.329,36.322c0.093-0.392,0.586-1.223,0.798-1.344
	c0.137,0.106,0.405,0.663,0.405,0.921c0,0.046-0.449,0.848-0.449,0.848C48.872,36.595,48.646,36.459,48.329,36.322 M45.159,36.216
	c-0.061-0.831,0.225-1.45,0.616-2.069c0.119-0.198,0.196-0.364,0.347-0.531c0.225,0,0.826,0.242,1.035,0.348
	c0.344,0.183,0.542,0.317,0.811,0.56c0.873,0.83,0.591,0.544,0.137,1.692c-0.662-0.044-1.082-0.483-2.313-0.227
	C45.58,36.035,45.293,36.216,45.159,36.216 M51.079,36.322c-0.674-0.135-1.035-0.423-1.278-0.996
	c-0.286-0.65,0.063-1.347,0.379-1.664c0.93-0.905,2.702-0.167,2.602,1.195c-0.032,0.484-0.226,0.876-0.588,1.148
	c-0.136,0.105-0.211,0.136-0.329,0.211c-0.468,0.304-0.755,0.622-0.873,1.377c-0.119,0.725-0.349,3.279-0.405,4.125l-0.441,0.015
	c0.035-0.892,0.186-1.964,0.273-2.87c0.049-0.439,0.062-1.043,0.149-1.453C50.722,36.654,50.991,36.564,51.079,36.322
	 M27.994,47.493c-0.044-0.152-0.075-14.692-0.031-14.829h12.822c0.075,0.441,0.016,1.375,0.016,1.86
	c0,1.225-0.047,12.681,0.028,12.969h12.824c0.045,0.5-0.061,2.887-0.122,3.493c-0.046,0.527-0.089,1.084-0.164,1.616
	c-0.093,0.498-0.211,0.996-0.317,1.468c-0.33,1.463-1.441,3.46-2.525,4.593c-0.886,0.938-1.74,1.753-2.93,2.449
	c-2.256,1.313-3.894,1.997-6.825,2.054l0.016-2.521c-0.406-0.396-1.188-0.639-1.893-0.714c-1.848-0.162-2.421,1.001-4.074,1.139
	c-1.188,0.088-1.397-0.199-2.089-0.41c0.09,0.18,1.728,1.207,2.058,1.374c1.593,0.846,3.653,1.243,5.487,1.393
	c0.963,0.075,2.239-0.079,3.155-0.26c0.963-0.194,1.776-0.511,2.587-0.89c0.526-0.243,1.696-0.891,2.195-1.238
	c0.736-0.498,1.353-0.97,1.908-1.529l0.828-0.908c0.688-0.647,1.547-2.234,1.951-3.217c0.724-1.771,0.948-3.918,1.011-5.866
	c0.029-1.135,0.029-2.252,0.029-3.399c0-2.283-0.017-4.581-0.017-6.863v-3.431c0-1.135-0.031-2.312,0-3.446H27.679l0.013,17.321
	c3.849-1.559,4.105,0.379,6.511,0.603c0.525,0.063,1.338-0.132,1.756-0.314c1.1-0.5,1.699-1.104,3.308-0.847
	c0.707,0.122,1.022,0.333,1.534,0.573l-0.032-2.205L27.994,47.493z"/>
<path fill="#13336D" d="M29.272,17.321c0.405-0.09,0.826-0.27,1.247-0.392c1.309-0.361,2.721-0.696,4.087-0.892
	c3.594-0.544,8.75-0.725,12.311-0.015c1.144,0.242,2.964,0.59,4.074,0.923c0.375,0.106,0.917,0.302,1.277,0.376l0.075-3.807
	c-0.331,0.165-0.449,0.377-1.189,0.604c-0.556,0.165-0.975,0.165-1.577,0.242c-0.525,0.062-1.019,0.121-1.547,0.227
	c-0.68,0.121-0.812,0.271-1.291,0.498c-0.063-0.075-0.259-0.513-0.573-0.286c-0.119,0.09-0.061,0.09-0.119,0.196
	c-0.315-0.121-0.514-0.258-0.979-0.212c-0.315,0.047-0.677,0.243-0.811,0.393c-0.258-0.331-0.917-0.772-1.384-0.996
	c-1.322-0.666-3.473-0.606-4.764,0.348c-0.24,0.165-0.392,0.407-0.617,0.573c-0.15-0.075-0.406-0.349-0.826-0.393
	c-0.543-0.061-0.646,0.091-1.023,0.227c-0.103-0.105-0.165-0.227-0.376-0.183c-0.194,0.047-0.256,0.152-0.3,0.349
	c-0.225-0.075-0.405-0.181-0.661-0.256c-1.113-0.379-3.576-0.364-4.854-1.256l-0.181-0.106V17.321z"/>
<path fill="#13336D" d="M27.844,51.783c0.135,0.622,0.21,1.393,0.405,1.982c0.197-0.017,0.571-0.136,0.796-0.18
	c2.435-0.516,3.429,1.132,5.667,1.04c2.014-0.075,2.931-2.204,6.073-0.586l0.016-2.239c-0.527-0.181-0.858-0.423-1.55-0.498
	c-2.119-0.256-3.261,1.146-4.898,1.194c-1.053,0.044-2.375-0.802-3.098-1.013C29.902,51.091,29.017,51.378,27.844,51.783"/>
<path fill="#13336D" d="M28.895,55.838c0.047,0.075,0.062,0.194,0.106,0.286l0.932,1.679c2.06-0.062,3.111,1.754,5.531,1.014
	c0.872-0.273,1.639-0.758,2.54-0.956c1.188-0.238,1.895,0.093,2.781,0.516v-2.221c-0.406-0.106-0.511-0.287-1.428-0.454
	c-2.164-0.41-2.706,0.833-4.374,1.07C32.683,57.093,31.768,55.154,28.895,55.838"/>
<path fill="#13336D" d="M45.864,48.354c0.316,0.258,0.227,0.77,0.211,1.301c-0.226,0.029-1.038,0.074-1.231-0.048
	c-0.105-0.074-0.15-0.18-0.227-0.257l0.015,1.287c0.212-0.227,0.121-0.304,0.586-0.336c0.258-0.013,0.573-0.028,0.857-0.013
	l0.016,2.631c0,0.529-0.227,1.027-0.723,1.12c-0.014-0.199-0.014-1.666,0.016-1.829c0.062-0.212,0.255-0.291,0.255-0.317
	c0.017-0.018,0.017-0.018,0.031-0.018h-1.685c0.061,0.123,0.194,0.136,0.287,0.41c0.075,0.269,0.029,2.75,0.029,3.265
	c0,0.709-0.287,0.542-0.362,0.709l1.762-0.017c-0.077-0.226-0.363,0.017-0.347-0.904c0-0.409-0.017-0.863,0.014-1.269
	c0.663,0.026,1.396-0.049,2.074,0.013c0.015,0.229,0.046,1.648-0.029,1.86c-0.075,0.286-0.163,0.149-0.287,0.33
	c0.304,0.018,1.503,0.049,1.701-0.03l-0.093-0.088c-0.088-0.075-0.162-0.138-0.207-0.257c-0.049-0.167-0.03-2.966-0.03-3.344
	c0-0.406,0.101-0.454,0.33-0.647H47.17c0.124,0.104,0.142,0.074,0.229,0.272c0.089,0.242,0.058,1.433,0.043,1.829
	c-0.329-0.093-0.494-0.243-0.632-0.485c-0.163-0.26-0.103-0.679-0.103-1.014v-2.191c0.209-0.029,0.674,0,0.902,0
	c0.357,0.016,0.375,0.12,0.538,0.333l-0.026-1.329c-0.123,0.074-0.079,0.333-0.512,0.362c-0.26,0.015-0.632,0-0.902-0.015
	c0-1.227-0.075-0.938,0.314-1.405l-1.277-0.016L45.864,48.354z"/>
<path fill="#13336D" d="M46.783,57.803c0.059-0.075,0.134-0.136,0.209-0.198l0.57-0.437c0.149,0.075,0.317,0.225,0.449,0.031
	c0.093-0.094,0.079-0.428,0.031-0.546c-0.058-0.075-0.176-0.063-0.3-0.063c-0.48,0-0.449,0.093-0.33,0.41
	c-0.163,0.137-0.317,0.3-0.465,0.454c-0.165,0.167-0.301,0.36-0.482,0.454l0.09-1.636c0.632-0.089,0.105-0.423-0.029-0.723
	c-0.164,0.057-0.511,0.348-0.451,0.666l0.271,0.057l0.046,1.617l-0.647-0.665c-0.09-0.088-0.121-0.149-0.212-0.225
	c0.076-0.366,0.198-0.423-0.6-0.423c-0.015,0.136-0.028,0.436,0.029,0.56c0.092,0.181,0.286,0.075,0.405,0.014
	c0.077,0.092,0.256,0.197,0.363,0.285l0.328,0.322c-0.496-0.092-0.797,0.013-1.022,0.348c-0.271,0.375-0.162,0.768,0.091,1.071
	l1.28,1.569c0.072-0.044,0.118-0.119,0.163-0.194c0.316-0.392,0.828-0.969,1.084-1.331C48.299,58.332,47.58,57.667,46.783,57.803"/>
<path fill="#13336D" d="M38.11,34.085c-0.134-0.106-0.482-0.59-1.143-0.257c-0.316,0.151-0.541,0.696-0.3,1.15
	c0.121,0.211,0.857,1.042,1.066,1.315l0.377,0.467c0.119-0.106,0.255-0.317,0.375-0.453l0.738-0.922
	c0.121-0.149,0.255-0.286,0.343-0.482c0.212-0.5,0-0.954-0.343-1.135c-0.196-0.121-0.439-0.137-0.664-0.046
	C38.291,33.828,38.26,33.904,38.11,34.085"/>
<path fill="#13336D" d="M30.292,36.732l0.108-0.093l0.256-0.346c0.119-0.152,0.224-0.288,0.346-0.454
	c0.555-0.74,1.275-1.39,0.478-2.056c-0.163-0.136-0.434-0.167-0.659-0.121c-0.317,0.06-0.361,0.212-0.529,0.317
	c-0.645-0.846-1.862,0.106-1.35,0.968c0.09,0.152,0.209,0.302,0.315,0.438l0.691,0.893C30.052,36.412,30.173,36.611,30.292,36.732"
	/>
<path fill="#13336D" d="M38.005,43.518c-0.166-0.09-0.256-0.258-0.558-0.288c-0.659-0.091-1.216,0.635-0.855,1.286
	c0.09,0.165,0.225,0.303,0.346,0.454l0.901,1.086c0.015,0.029,0.166,0.212,0.181,0.197c0,0,0.015,0.015,0.028,0.015
	c0.047-0.137,0.858-1.179,1.023-1.39c0.255-0.333,0.526-0.635,0.392-1.089c-0.062-0.228-0.181-0.349-0.346-0.454
	C38.621,43.005,38.291,43.26,38.005,43.518"/>
<path fill="#13336D" d="M30.292,46.253c0.108-0.075,1.219-1.633,1.353-1.858c0.437-0.668-0.15-1.405-0.87-1.193
	c-0.302,0.09-0.315,0.165-0.483,0.316c-0.165-0.09-0.181-0.241-0.48-0.304c-0.661-0.15-1.245,0.454-0.886,1.241
	c0.075,0.151,0.527,0.727,0.676,0.921C29.724,45.543,30.188,46.162,30.292,46.253"/>
<path fill="#13336D" d="M34.126,40.737l0.661-0.833c0.121-0.165,0.212-0.257,0.331-0.422c0.09-0.106,0.257-0.302,0.315-0.439
	c0.451-0.877-0.571-1.648-1.338-1.014c-0.225-0.103-0.599-0.392-1.097-0.059c-0.269,0.196-0.421,0.712-0.209,1.104
	c0.075,0.121,0.24,0.333,0.302,0.423l0.674,0.846C33.855,40.433,34.007,40.691,34.126,40.737"/>
<path fill="#13336D" d="M50.767,56.243c0.374,0.017,0.674,0.048,0.96-0.137c0.273-0.163,0.406-0.256,0.542-0.556
	c0.27-0.652-0.167-1.256-0.479-1.511c-0.485-0.379-0.724-0.635-1.146-0.983c-0.149-0.137-0.45-0.348-0.356-0.714
	c0.074-0.331,0.3-0.313,0.599-0.436c-0.705-0.106-1.321,0.061-1.515,0.603c-0.212,0.652,0.356,1.181,0.611,1.419l1.067,1.015
	c0.392,0.423,0.365,1-0.102,1.212C50.872,56.185,50.824,56.185,50.767,56.243"/>
<path fill="#13336D" d="M43.341,56.168c-0.317-0.181-0.242-0.423-0.242-0.877l0.016-2.551c0-0.592,0.03-0.592,0.302-0.804
	c0.088-0.061,0.027,0.015,0.088-0.061l-1.847,0.018l0.118,0.088c0.075,0.062,0.15,0.119,0.196,0.273
	c0.075,0.211,0.032,1.573,0.032,1.842c0,0.291,0.043,1.661-0.063,1.86c-0.074,0.136-0.193,0.185-0.314,0.286h1.833L43.341,56.168z"
	/>
<path fill="#13336D" d="M38.229,42.203l1.82-0.046c-0.467-0.256-0.317-0.092-0.692-0.894l-1.397-2.84
	c-0.152-0.317-0.136-0.364,0.06-0.56l-1.759-0.015c0.075,0.061,0.165,0.09,0.256,0.152c0.271,0.196,0.361,0.482,0.496,0.755
	c0.421,0.862,0.991,1.997,1.381,2.843c0.196,0.406,0,0.452-0.09,0.527C38.216,42.203,38.291,42.126,38.229,42.203"/>
<path fill="#13336D" d="M28.882,38.499v2.6c0,0.317,0.044,0.708-0.121,0.906l-0.212,0.198l1.686-0.017
	c-0.152-0.167-0.333-0.167-0.333-0.724c0-0.379-0.013-2.616,0.016-3.039c0.015-0.333,0.15-0.423,0.33-0.575h-1.712
	C28.701,37.985,28.882,37.926,28.882,38.499"/>
<path fill="#13336D" d="M35.133,42.203c0.767,0,1.926,0.031,2.662,0c-0.091-0.091-0.333-0.198-0.452-0.529
	c-0.106-0.302-0.031-0.5,0-0.787c-0.106,0.168-0.405,0.906-0.692,1.043c-0.075-0.122-0.193-0.168-0.374-0.484
	c-0.106-0.194-0.196-0.391-0.302-0.573c-0.181-0.317-0.406-0.831-0.615-1.117c-0.106,0.059-0.392,0.453-0.452,0.544
	c-0.255,0.331-0.377,0.15,0.256,1.207c0.134,0.227,0.24,0.41,0.044,0.606L35.133,42.203z"/>
<path fill="#13336D" d="M30.473,40.647c0.813-0.062,1.595-0.606,1.609-1.392c0.015-0.499-0.194-0.802-0.452-1.043
	c-0.313-0.317-0.615-0.332-1.126-0.363c0.152,0.18,0.227,0.061,0.451,0.544c0.119,0.273,0.166,0.5,0.135,0.862
	c-0.029,0.348-0.106,0.861-0.359,1.119c-0.046,0.059-0.075,0.075-0.121,0.121l-0.075,0.075c-0.016,0-0.016,0.015-0.031,0.015
	L30.473,40.647z"/>
<path fill="#13336D" d="M33.63,37.426c0.24,0.061,0.285,0.061,0.437,0.196c0.18-0.15,0.33-0.15,0.48-0.256
	c0.137-1.452-0.826-1.725-0.421-3.023c0.137-0.394,0.271-0.56,0.405-0.861c-0.464,0.255-0.96,1.042-0.991,1.692
	C33.481,36.066,34.126,36.549,33.63,37.426"/>
<path fill="#13336D" d="M31.616,42.187l1.594,0.017c-0.692-0.575-0.452-0.831-0.437-1.3c-0.181,0.271-0.271,0.454-0.48,0.711
	c-0.106,0.118-0.346,0.331-0.465,0.421c-0.031,0.03-0.06,0.047-0.09,0.062C31.616,42.187,31.782,42.035,31.616,42.187"/>
<path fill="#13336D" d="M49.414,54.793c-0.063,0.15-0.075,1.239-0.031,1.437l1.097,0.03l-0.044-0.043
	c-0.018-0.018-0.018-0.018-0.03-0.032c-0.15-0.104,0.137,0.107-0.045-0.029c-0.241-0.154-0.379-0.242-0.572-0.517
	c-0.211-0.3-0.256-0.586-0.345-0.802L49.414,54.793z"/>
<path fill="#13336D" d="M38.877,38.847c0.181-0.044,0.181-0.439,1.082-0.877c0.134-0.075,0.119-0.06,0.165-0.136l-1.322,0.03
	C38.965,38.197,39.027,38.439,38.877,38.847"/>
<path fill="#13336D" d="M50.238,34.191c0.241,0.423,0.858,0.258,0.783-0.196C50.916,33.391,50.316,33.995,50.238,34.191"/>
<path fill="#13336D" d="M51.546,35.883c0.256-0.044,0.437-0.225,0.556-0.392C52,34.766,50.947,35.326,51.546,35.883"/>
<path fill="#13336D" d="M52.282,34.449c-0.03-0.273-0.256-0.485-0.449-0.575C51.233,34.116,51.802,34.962,52.282,34.449"/>
<path fill="#13336D" d="M46.135,36.701l0.198,0.046C46.225,36.897,46.149,36.838,46.135,36.701 M45.791,36.505
	c0.031,0.211,0.042,0.121,0.119,0.255c0.074,0.121,0.015,0.153,0.149,0.214c0.333,0.134,0.406-0.093,0.496-0.198l0.377,0.031
	c-0.091-0.168-0.225-0.228-0.452-0.287C46.333,36.474,45.91,36.443,45.791,36.505"/>
<path fill="#13336D" d="M51.203,51.907c0.132,0.074,0.193,0.062,0.343,0.163c0.604,0.396,0.331,0.563,0.574,0.907
	c0.013-0.344,0.029-0.767,0-1.115L51.203,51.907z"/>
<path fill="#13336D" d="M50.104,35.037c0.015,0.242,0.301,0.544,0.419,0.621C51.004,35.429,50.722,34.689,50.104,35.037"/>
<circle fill="none" stroke="#13336D" stroke-width="1.352" cx="40.819" cy="40.818" r="40.143"/>
<path fill="#13336D" d="M14.958,62.979c0.19,0.069,0.515,0.284,0.838,0.635c0.75,0.812,0.797,1.89-0.151,2.766
	c-0.906,0.837-2.077,0.786-2.901-0.107c-0.327-0.354-0.463-0.655-0.502-0.802l0.39-0.186c0.058,0.199,0.192,0.447,0.413,0.687
	c0.623,0.675,1.469,0.726,2.225,0.027c0.708-0.654,0.783-1.474,0.14-2.171c-0.213-0.23-0.473-0.418-0.684-0.5L14.958,62.979z"/>
<path fill="#13336D" d="M13.949,62.041l-3.847,0.1l-0.014,0.01l1.159,1.609l-0.344,0.248l-1.547-2.146l0.25-0.181l3.836-0.099
	l0.013-0.01l-1.282-1.777l0.345-0.248l1.672,2.32L13.949,62.041z"/>
<path fill="#13336D" d="M8.177,59.944l2.038-1.119c0.765-0.42,0.903-0.94,0.651-1.398c-0.277-0.505-0.795-0.651-1.549-0.237
	l-2.039,1.119L7.032,57.86l2.008-1.103c1.055-0.578,1.787-0.258,2.196,0.486c0.386,0.703,0.28,1.451-0.791,2.038l-2.023,1.11
	L8.177,59.944z"/>
<path fill="#13336D" d="M8.71,52.002c0.149,0.137,0.366,0.459,0.531,0.906c0.381,1.037,0.012,2.053-1.198,2.498
	c-1.158,0.426-2.219-0.068-2.639-1.209c-0.167-0.453-0.177-0.784-0.157-0.934l0.431-0.022c-0.023,0.207,0.007,0.487,0.119,0.793
	c0.317,0.862,1.079,1.231,2.045,0.876c0.905-0.333,1.287-1.062,0.96-1.951c-0.108-0.295-0.277-0.566-0.44-0.724L8.71,52.002z"/>
<path fill="#13336D" d="M8.126,50.791l-3.62-1.308l-0.017,0.005l0.494,1.92l-0.41,0.105l-0.66-2.563l0.298-0.076l3.608,1.305
	l0.017-0.004l-0.547-2.123L7.7,47.947l0.713,2.77L8.126,50.791z"/>
<path fill="#13336D" d="M5.092,43.79c1.332-0.168,2.15,0.556,2.275,1.548c0.13,1.032-0.581,1.849-1.757,1.997
	c-1.234,0.155-2.139-0.504-2.27-1.542C3.206,44.726,3.933,43.937,5.092,43.79z M5.531,46.806c0.836-0.105,1.523-0.649,1.423-1.445
	c-0.1-0.796-0.889-1.153-1.771-1.042c-0.779,0.098-1.536,0.604-1.43,1.439C3.857,46.595,4.683,46.912,5.531,46.806z"/>
<path fill="#13336D" d="M3.134,41.768c-0.039-0.257-0.064-0.63-0.056-0.973c0.015-0.54,0.128-0.893,0.349-1.125
	c0.18-0.188,0.45-0.297,0.758-0.289c0.512,0.014,0.847,0.348,0.976,0.758l0.018,0c0.111-0.293,0.396-0.466,0.805-0.549
	c0.55-0.114,0.93-0.197,1.083-0.274l-0.014,0.523c-0.118,0.061-0.451,0.14-0.941,0.232c-0.545,0.102-0.754,0.312-0.783,0.77
	l-0.013,0.477l1.697,0.043l-0.013,0.506L3.134,41.768z M4.932,41.308l0.014-0.517c0.014-0.541-0.273-0.891-0.721-0.903
	c-0.506-0.013-0.736,0.348-0.75,0.882c-0.007,0.244,0.007,0.414,0.027,0.501L4.932,41.308z"/>
<path fill="#13336D" d="M7.594,33.973c0.045,0.239,0.093,0.708,0,1.229c-0.104,0.583-0.337,1.038-0.764,1.353
	c-0.38,0.275-0.933,0.39-1.533,0.283c-1.15-0.204-1.851-1.148-1.622-2.442c0.079-0.446,0.239-0.784,0.349-0.937l0.384,0.198
	c-0.134,0.189-0.248,0.435-0.316,0.824c-0.167,0.938,0.309,1.655,1.276,1.826c0.979,0.173,1.66-0.308,1.82-1.213
	c0.059-0.326,0.053-0.558,0.016-0.683l-1.151-0.204l-0.138,0.779l-0.4-0.071l0.225-1.271L7.594,33.973z"/>
<path fill="#13336D" d="M6.986,29.962l-0.445,1.45l1.351,0.415l0.499-1.623l0.405,0.125l-0.648,2.112l-3.746-1.15l0.623-2.029
	l0.405,0.125l-0.473,1.54l1.184,0.364l0.445-1.45L6.986,29.962z"/>
<path fill="#13336D" d="M5.503,28.028c0.056-0.254,0.167-0.611,0.299-0.928c0.208-0.499,0.44-0.786,0.731-0.923
	c0.234-0.11,0.525-0.115,0.811,0.003c0.472,0.197,0.664,0.63,0.636,1.059l0.016,0.007c0.211-0.233,0.538-0.292,0.949-0.222
	c0.554,0.092,0.938,0.151,1.109,0.134l-0.201,0.483c-0.132,0.014-0.472-0.033-0.962-0.124c-0.544-0.101-0.814,0.02-1.008,0.437
	l-0.184,0.44l1.567,0.653l-0.194,0.467L5.503,28.028z M7.346,28.248l0.199-0.478c0.207-0.499,0.065-0.929-0.348-1.102
	c-0.467-0.194-0.812,0.058-1.018,0.552c-0.094,0.225-0.143,0.388-0.154,0.477L7.346,28.248z"/>
<path fill="#13336D" d="M11.894,23.35c-0.036,0.24-0.147,0.698-0.408,1.159c-0.292,0.516-0.663,0.866-1.171,1.021
	c-0.449,0.133-1.009,0.058-1.54-0.243c-1.017-0.575-1.362-1.699-0.716-2.842c0.223-0.395,0.486-0.66,0.641-0.767l0.296,0.314
	c-0.189,0.134-0.379,0.327-0.573,0.671c-0.47,0.83-0.26,1.664,0.596,2.147c0.866,0.489,1.668,0.262,2.121-0.538
	c0.162-0.288,0.234-0.509,0.24-0.638l-1.017-0.575l-0.39,0.688l-0.354-0.201l0.636-1.124L11.894,23.35z"/>
<path fill="#13336D" d="M12.655,19.379l-0.898,1.223l1.139,0.837l1.005-1.368l0.342,0.251l-1.309,1.78l-3.157-2.321l1.258-1.709
	l0.342,0.251l-0.954,1.297l0.997,0.733l0.898-1.223L12.655,19.379z"/>
<path fill="#13336D" d="M11.787,17.157l0.332-0.389l2.659,2.266l1.086-1.275l0.323,0.275l-1.417,1.664L11.787,17.157z"/>
<path fill="#13336D" d="M17.14,17.132l-1.156-1.194l-2.464-0.754l0.417-0.405l1.15,0.393c0.311,0.112,0.563,0.198,0.842,0.31
	l0.008-0.008c-0.104-0.256-0.181-0.537-0.278-0.855l-0.347-1.169l0.408-0.396l0.627,2.526l1.16,1.199L17.14,17.132z"/>
<path fill="#13336D" d="M17.862,11.394c0.148-0.171,0.416-0.407,0.699-0.611c0.41-0.295,0.725-0.416,1.033-0.395
	c0.254,0.004,0.493,0.118,0.674,0.368c0.225,0.312,0.21,0.729-0.034,1.085l0.011,0.014c0.352-0.147,0.886-0.152,1.226,0.32
	c0.197,0.274,0.241,0.564,0.186,0.834c-0.071,0.358-0.361,0.711-0.88,1.085c-0.283,0.204-0.514,0.342-0.664,0.421L17.862,11.394z
	 M19.21,12.399l0.373-0.268c0.43-0.31,0.518-0.724,0.297-1.031c-0.266-0.368-0.652-0.318-1.068-0.019
	c-0.188,0.136-0.286,0.228-0.342,0.29L19.21,12.399z M20.306,13.918c0.094-0.047,0.211-0.124,0.357-0.229
	c0.424-0.306,0.703-0.744,0.371-1.206c-0.31-0.429-0.814-0.344-1.264-0.021l-0.339,0.245L20.306,13.918z"/>
<path fill="#13336D" d="M24.156,9.784l-1.33,0.73l0.68,1.238l1.488-0.817l0.204,0.372l-1.937,1.063l-1.886-3.436l1.86-1.021
	l0.204,0.372l-1.411,0.775l0.596,1.085l1.329-0.73L24.156,9.784z"/>
<path fill="#13336D" d="M25.963,10.9l-1.535-3.605l0.513-0.219l1.927,1.333c0.442,0.312,0.818,0.6,1.141,0.899l0.015-0.012
	c-0.248-0.464-0.446-0.897-0.685-1.459l-0.643-1.509l0.438-0.187l1.536,3.605l-0.47,0.2l-1.924-1.341
	c-0.424-0.294-0.84-0.604-1.182-0.919L25.08,7.7c0.22,0.443,0.41,0.875,0.665,1.473l0.656,1.541L25.963,10.9z"/>
<path fill="#13336D" d="M32.671,8.392c-0.148,0.139-0.486,0.332-0.944,0.463c-1.063,0.302-2.048-0.144-2.4-1.385
	c-0.338-1.186,0.235-2.207,1.405-2.54c0.463-0.132,0.794-0.117,0.941-0.087l-0.01,0.432c-0.204-0.039-0.486-0.031-0.8,0.059
	c-0.884,0.251-1.31,0.983-1.028,1.973c0.265,0.929,0.963,1.364,1.874,1.105c0.302-0.086,0.587-0.233,0.755-0.384L32.671,8.392z"/>
<path fill="#13336D" d="M35.918,6.073l-1.499,0.228l0.212,1.396l1.678-0.255l0.063,0.419l-2.185,0.332L33.6,4.32l2.098-0.319
	l0.064,0.42L34.17,4.663l0.186,1.224l1.5-0.228L35.918,6.073z M35.38,3.15l-0.633,0.784l-0.409,0.062l0.434-0.753L35.38,3.15z"/>
<path fill="#13336D" d="M37.141,7.155c0.236,0.128,0.569,0.214,0.917,0.188c0.517-0.039,0.798-0.334,0.768-0.728
	c-0.026-0.36-0.251-0.559-0.794-0.716c-0.655-0.184-1.074-0.491-1.115-1.035c-0.045-0.609,0.425-1.099,1.185-1.156
	c0.394-0.03,0.697,0.041,0.872,0.127l-0.107,0.421c-0.128-0.065-0.397-0.157-0.751-0.13c-0.533,0.04-0.712,0.374-0.692,0.641
	c0.027,0.365,0.279,0.527,0.834,0.696c0.68,0.206,1.034,0.5,1.077,1.073c0.045,0.603-0.356,1.164-1.278,1.233
	c-0.377,0.028-0.797-0.057-1.017-0.181L37.141,7.155z"/>
<path fill="#13336D" d="M44.599,7.643c-0.233,0.07-0.695,0.163-1.222,0.123c-0.593-0.045-1.068-0.232-1.423-0.627
	c-0.312-0.351-0.479-0.888-0.433-1.496c0.088-1.165,0.958-1.956,2.269-1.856c0.452,0.034,0.804,0.16,0.966,0.254l-0.158,0.402
	c-0.203-0.114-0.457-0.204-0.852-0.234C42.795,4.136,42.13,4.68,42.055,5.66c-0.074,0.991,0.473,1.621,1.388,1.691
	c0.331,0.024,0.56-0.004,0.681-0.054l0.089-1.165l-0.789-0.06l0.03-0.406l1.289,0.098L44.599,7.643z"/>
<path fill="#13336D" d="M47.323,4.307l-0.683,3.858l-0.504-0.09l0.683-3.858L47.323,4.307z"/>
<path fill="#13336D" d="M51.892,7.749c0.132-0.531,0.294-1.175,0.435-1.637l-0.011-0.003c-0.265,0.393-0.562,0.819-0.909,1.278
	l-1.219,1.614L49.82,8.89l-0.064-1.973c-0.013-0.588-0.01-1.109,0.021-1.587l-0.011-0.004c-0.154,0.464-0.375,1.078-0.581,1.635
	l-0.594,1.575L48.13,8.395l1.411-3.666l0.617,0.189l0.082,2.008c0.015,0.509,0.01,0.958-0.009,1.378l0.011,0.003
	c0.217-0.347,0.477-0.718,0.788-1.138l1.223-1.607l0.617,0.189l-0.917,3.817l-0.478-0.146L51.892,7.749z"/>
<path fill="#13336D" d="M53.557,10.21l1.68-3.54l0.504,0.238l0.28,2.327c0.062,0.538,0.095,1.01,0.085,1.45l0.018,0.002
	c0.183-0.493,0.377-0.928,0.639-1.48l0.702-1.48l0.431,0.203l-1.679,3.541l-0.463-0.219l-0.272-2.33
	c-0.06-0.511-0.104-1.028-0.096-1.493l-0.018-0.003c-0.186,0.459-0.383,0.888-0.661,1.477l-0.718,1.512L53.557,10.21z"/>
<path fill="#13336D" d="M58.816,11.56l-1.021,0.802l-0.436-0.289l3.281-2.524l0.504,0.335l-1.055,4.003l-0.449-0.299l0.333-1.259
	L58.816,11.56z M60.109,11.944l0.301-1.155c0.068-0.261,0.148-0.486,0.226-0.707l-0.01-0.008c-0.175,0.157-0.356,0.328-0.558,0.482
	l-0.947,0.731L60.109,11.944z M62.098,9.447l-0.997,0.154l-0.344-0.229l0.827-0.267L62.098,9.447z"/>
<path fill="#13336D" d="M61.107,14.24l3.712-1.016l0.011-0.014l-1.509-1.285l0.275-0.323l2.015,1.716l-0.201,0.234l-3.701,1.01
	l-0.012,0.014l1.67,1.421l-0.275,0.323l-2.178-1.855L61.107,14.24z"/>
<path fill="#13336D" d="M67.033,14.688l-2.748,2.793l-0.364-0.358l2.748-2.793L67.033,14.688z"/>
<path fill="#13336D" d="M68.694,16.449l-1.783,1.494c-0.669,0.56-0.703,1.098-0.367,1.499c0.37,0.44,0.907,0.483,1.565-0.068
	l1.783-1.493l0.329,0.393l-1.756,1.471c-0.923,0.772-1.704,0.6-2.249-0.051c-0.516-0.614-0.557-1.369,0.379-2.153l1.77-1.482
	L68.694,16.449z"/>
<path fill="#13336D" d="M71.391,24.094c0.458-0.301,1.014-0.664,1.432-0.906l-0.006-0.011c-0.463,0.108-0.969,0.221-1.535,0.321
	l-1.992,0.357l-0.192-0.332l1.292-1.49c0.389-0.441,0.745-0.823,1.092-1.152l-0.006-0.01c-0.428,0.234-1.006,0.537-1.535,0.806
	l-1.506,0.753l-0.242-0.417l3.524-1.733l0.325,0.559l-1.304,1.529c-0.335,0.384-0.643,0.711-0.942,1.006l0.006,0.01
	c0.395-0.108,0.837-0.203,1.352-0.301l1.989-0.35l0.325,0.558l-3.266,2.181l-0.25-0.433L71.391,24.094z"/>
<path fill="#13336D" d="M73.823,29.175l-0.56-1.411l-1.313,0.521l0.626,1.578l-0.395,0.157l-0.815-2.055l3.643-1.445l0.782,1.973
	l-0.394,0.156l-0.594-1.496l-1.152,0.456l0.561,1.411L73.823,29.175z M76.551,27.993l-0.907-0.441l-0.152-0.384l0.832,0.252
	L76.551,27.993z"/>
<path fill="#13336D" d="M73.037,30.665c-0.078,0.258-0.096,0.601,0,0.938c0.142,0.498,0.487,0.713,0.867,0.605
	c0.347-0.1,0.497-0.359,0.542-0.922c0.049-0.679,0.265-1.152,0.79-1.301c0.588-0.168,1.162,0.194,1.371,0.928
	c0.107,0.38,0.1,0.691,0.051,0.88l-0.436-0.021c0.039-0.138,0.074-0.421-0.023-0.761c-0.146-0.514-0.51-0.623-0.767-0.55
	c-0.353,0.101-0.46,0.379-0.514,0.956c-0.065,0.708-0.282,1.114-0.835,1.271c-0.581,0.166-1.211-0.114-1.465-1.004
	c-0.104-0.363-0.104-0.792-0.027-1.031L73.037,30.665z"/>
<path fill="#13336D" d="M77.378,34.5l0.076,0.5l-1.868,0.284l0.003,0.018c0.165,0.081,0.319,0.164,0.46,0.242l1.634,0.963
	l0.095,0.62l-1.857-1.152l-2,1.851l-0.09-0.592l1.709-1.56l-0.481-0.31l-1.478,0.225l-0.076-0.5L77.378,34.5z"/>
<path fill="#13336D" d="M76.039,42.273c-1.343-0.001-2.063-0.821-2.063-1.821c0.001-1.041,0.81-1.761,1.996-1.76
	c1.244,0.001,2.057,0.769,2.057,1.815C78.028,41.583,77.208,42.274,76.039,42.273z M75.983,39.228
	c-0.843-0.001-1.594,0.451-1.594,1.254c-0.001,0.802,0.737,1.257,1.627,1.258c0.784,0,1.599-0.406,1.6-1.249
	S76.838,39.228,75.983,39.228z"/>
<path fill="#13336D" d="M77.836,44.252l-0.052,0.51l-3.476-0.352l-0.168,1.666l-0.424-0.043l0.221-2.176L77.836,44.252z"/>
<path fill="#13336D" d="M77.402,47.637l-0.103,0.5l-3.424-0.693l-0.332,1.643l-0.416-0.085l0.435-2.144L77.402,47.637z"/>
<path fill="#13336D" d="M74.076,52.29l0.445-1.45l-1.351-0.414l-0.498,1.623l-0.406-0.125l0.648-2.113l3.745,1.15l-0.622,2.029
	l-0.405-0.125l0.473-1.539l-1.184-0.363l-0.445,1.45L74.076,52.29z M76.943,53.074l-0.432-0.912l0.121-0.395l0.491,0.717
	L76.943,53.074z"/>
<path fill="#13336D" d="M70.974,55.549c0.011-0.242,0.079-0.707,0.294-1.191c0.241-0.541,0.578-0.926,1.068-1.127
	c0.436-0.176,0.998-0.156,1.556,0.092c1.067,0.477,1.52,1.563,0.985,2.762c-0.185,0.416-0.422,0.705-0.563,0.825l-0.325-0.284
	c0.175-0.151,0.346-0.361,0.506-0.723c0.389-0.871,0.099-1.682-0.799-2.08c-0.908-0.404-1.686-0.102-2.059,0.738
	c-0.135,0.303-0.185,0.527-0.18,0.658l1.068,0.475l0.321-0.722l0.371,0.165l-0.524,1.178L70.974,55.549z"/>
<path fill="#13336D" d="M73.267,59.252l-3.41-1.929l0.252-0.446l3.41,1.929L73.267,59.252z"/>
<path fill="#13336D" d="M72.05,61.341l-1.905-1.332c-0.715-0.5-1.243-0.394-1.543,0.035c-0.33,0.472-0.232,1.001,0.474,1.494
	l1.905,1.332l-0.293,0.419l-1.877-1.312c-0.986-0.689-1.022-1.489-0.537-2.185c0.46-0.656,1.178-0.893,2.179-0.193l1.892,1.322
	L72.05,61.341z"/>
<path fill="#13336D" d="M65.528,65.955c0.419,0.352,0.926,0.779,1.278,1.109l0.008-0.009c-0.236-0.411-0.488-0.864-0.748-1.378
	l-0.912-1.805l0.262-0.28l1.799,0.81c0.533,0.246,1.002,0.479,1.416,0.716l0.008-0.009c-0.348-0.342-0.802-0.809-1.211-1.24
	l-1.153-1.226l0.329-0.352l2.671,2.88l-0.441,0.471l-1.839-0.809c-0.463-0.211-0.865-0.413-1.233-0.615l-0.008,0.009
	c0.217,0.347,0.436,0.743,0.677,1.208l0.904,1.805l-0.441,0.471l-3.025-2.502l0.343-0.364L65.528,65.955z"/>
<path fill="#13336D" d="M60.113,69.966c0.02-0.017,0.033-0.032,0.061-0.032l0.169-0.011c0.05-0.007,0.185-0.021,0.226-0.027
	c0.124-0.021,0.131-0.046,0.225-0.085c0.039-0.015,0.074-0.025,0.112-0.044c0.12-0.055,0.229-0.107,0.338-0.189
	c0.037-0.027,0.073-0.051,0.111-0.077l0.108-0.09c0.014-0.015,0.014-0.035,0.011-0.053c-0.004-0.023-0.025-0.035-0.044-0.05
	c-0.079-0.06-0.147-0.11-0.229-0.168c-0.066-0.045-0.272-0.139-0.347-0.174c-0.08-0.037-0.144-0.05-0.228-0.071l-0.171-0.037
	l-0.171-0.02c-0.052-0.006-0.061-0.008-0.113,0.002c-0.036,0.009-0.062,0.018-0.083-0.01c-0.017-0.024-0.001-0.109,0.012-0.142
	c0.019-0.037,0.106-0.19,0.132-0.23c0.109-0.174,0.15-0.312,0.292-0.457c0.125-0.129,0.289-0.26,0.445-0.353
	c0.039-0.021,0.072-0.037,0.112-0.057c0.096-0.044,0.252-0.14,0.271,0.034c0.004,0.04,0,0.081,0.002,0.121
	c0,0.037,0.004,0.074,0.008,0.11c0.013,0.141,0.055,0.32,0.105,0.45c0.078,0.197,0.107,0.282,0.239,0.447
	c0.042,0.055,0.125,0.182,0.206,0.127c0.033-0.022,0.068-0.078,0.094-0.111c0.121-0.171,0.107-0.13,0.202-0.344
	c0.064-0.146,0.136-0.304,0.174-0.459c0.011-0.047,0.045-0.186,0.044-0.227c0-0.105-0.02-0.104,0.021-0.229
	c0.026-0.003,0.053-0.004,0.079,0.004c0.029,0.007,0.054,0.023,0.08,0.029c0.032,0.009,0.052,0.008,0.081,0.022
	c0.017,0.009,0.14,0.076,0.162,0.092c0.051,0.029,0.107,0.08,0.155,0.119c0.026,0.021,0.054,0.044,0.08,0.065
	c0.03,0.024,0.054,0.052,0.082,0.076c0.026,0.024,0.055,0.045,0.079,0.072c0.049,0.05,0.082,0.101,0.127,0.154
	c0.043,0.057,0.082,0.093,0.122,0.156c0.063,0.107,0.123,0.189,0.145,0.314c0.004,0.019,0.006,0.065-0.006,0.081
	c-0.02,0.024-0.049,0.027-0.079,0.03c-0.054,0.003-0.103,0.002-0.159,0.011c-0.052,0.008-0.104,0.02-0.155,0.026
	c-0.056,0.007-0.104,0.01-0.16,0.021c-0.058,0.012-0.102,0.024-0.156,0.044c-0.115,0.041-0.208,0.089-0.314,0.146
	c-0.061,0.035-0.103,0.069-0.156,0.114c-0.06,0.048-0.102,0.103-0.157,0.151c-0.074,0.064-0.014,0.107,0.042,0.151
	c0.092,0.071,0.218,0.167,0.322,0.216c0.091,0.042,0.146,0.065,0.24,0.091c0.028,0.007,0.054,0.02,0.08,0.025
	c0.054,0.016,0.105,0.024,0.158,0.032c0.186,0.025,0.3,0.029,0.479,0.001c0.032-0.005,0.053-0.014,0.081,0.01
	c0.018,0.018,0.002,0.06-0.008,0.077c-0.024,0.056-0.049,0.106-0.071,0.163c-0.021,0.056-0.055,0.105-0.081,0.159
	c-0.062,0.117-0.145,0.226-0.233,0.323c-0.024,0.026-0.047,0.054-0.07,0.081c-0.019,0.02-0.206,0.185-0.231,0.206
	c-0.076,0.062-0.223,0.151-0.313,0.199c-0.036,0.021-0.117,0.084-0.156,0.063c-0.052-0.028-0.033-0.103-0.04-0.15
	c-0.005-0.025-0.015-0.053-0.019-0.079c-0.005-0.026-0.008-0.055-0.012-0.08c-0.007-0.051-0.019-0.106-0.032-0.156
	c-0.011-0.049-0.033-0.111-0.051-0.159c-0.009-0.026-0.021-0.052-0.028-0.078c-0.01-0.027-0.015-0.054-0.025-0.08
	c-0.012-0.025-0.076-0.13-0.094-0.156c-0.033-0.051-0.084-0.108-0.124-0.155c-0.022-0.027-0.05-0.051-0.07-0.078
	c-0.023-0.028-0.044-0.052-0.068-0.078c-0.053-0.058-0.091-0.1-0.156-0.025c-0.048,0.056-0.102,0.107-0.146,0.165
	c-0.057,0.074-0.061,0.086-0.101,0.16c-0.078,0.15-0.089,0.154-0.131,0.322c-0.037,0.142-0.045,0.17-0.057,0.318
	c-0.004,0.056-0.009,0.104-0.004,0.16c0.005,0.056,0.007,0.064,0.004,0.118c-0.001,0.021,0.014,0.093-0.052,0.097
	c-0.037,0.001-0.204-0.055-0.24-0.07c-0.053-0.022-0.108-0.05-0.161-0.076c-0.062-0.029-0.106-0.06-0.16-0.1
	c-0.064-0.049-0.184-0.14-0.245-0.193c-0.026-0.023-0.05-0.049-0.075-0.076c-0.049-0.051-0.092-0.094-0.131-0.155
	c-0.035-0.053-0.07-0.099-0.104-0.154C60.167,70.201,60.1,70.057,60.113,69.966"/>
<path fill="#13336D" d="M20.478,69.231c-0.019-0.018-0.033-0.032-0.06-0.033l-0.17-0.011c-0.05-0.008-0.184-0.021-0.225-0.026
	c-0.125-0.022-0.13-0.046-0.224-0.085c-0.04-0.017-0.074-0.026-0.113-0.044c-0.12-0.056-0.229-0.109-0.337-0.19
	c-0.037-0.027-0.074-0.052-0.111-0.078l-0.11-0.089c-0.013-0.014-0.013-0.035-0.01-0.052c0.004-0.024,0.025-0.037,0.044-0.05
	c0.079-0.061,0.147-0.111,0.23-0.169c0.065-0.044,0.271-0.139,0.346-0.175c0.08-0.036,0.144-0.05,0.228-0.07l0.171-0.036l0.17-0.021
	c0.052-0.006,0.061-0.008,0.113,0.002c0.036,0.009,0.061,0.02,0.083-0.009c0.019-0.024,0.002-0.109-0.011-0.143
	c-0.018-0.037-0.106-0.19-0.131-0.23c-0.11-0.173-0.151-0.312-0.293-0.458c-0.126-0.128-0.29-0.259-0.445-0.35
	c-0.039-0.023-0.072-0.039-0.112-0.059c-0.097-0.044-0.252-0.14-0.272,0.034c-0.004,0.04,0,0.081-0.002,0.121
	c0,0.036-0.005,0.074-0.008,0.11c-0.012,0.141-0.054,0.322-0.105,0.452c-0.078,0.194-0.108,0.28-0.239,0.445
	c-0.043,0.056-0.125,0.182-0.206,0.127c-0.033-0.022-0.07-0.076-0.094-0.11c-0.121-0.172-0.107-0.13-0.202-0.346
	c-0.065-0.146-0.136-0.303-0.174-0.458c-0.011-0.047-0.045-0.187-0.044-0.228c-0.001-0.105,0.021-0.103-0.02-0.227
	c-0.027-0.004-0.053-0.005-0.08,0.004c-0.029,0.007-0.054,0.022-0.081,0.029c-0.031,0.009-0.05,0.008-0.08,0.021
	c-0.016,0.008-0.139,0.077-0.162,0.092c-0.051,0.03-0.107,0.081-0.154,0.118c-0.027,0.022-0.055,0.045-0.081,0.067
	c-0.03,0.023-0.054,0.051-0.082,0.075s-0.054,0.045-0.08,0.071c-0.049,0.051-0.082,0.103-0.126,0.155
	c-0.044,0.057-0.082,0.093-0.122,0.157c-0.064,0.106-0.123,0.188-0.146,0.313c-0.003,0.02-0.005,0.066,0.007,0.081
	c0.019,0.025,0.049,0.028,0.078,0.031c0.056,0.002,0.104,0.002,0.16,0.01c0.052,0.008,0.105,0.02,0.155,0.027
	c0.056,0.007,0.104,0.009,0.16,0.019c0.058,0.013,0.102,0.026,0.157,0.045c0.115,0.041,0.208,0.088,0.313,0.146
	c0.062,0.035,0.103,0.068,0.157,0.113c0.059,0.049,0.101,0.102,0.157,0.151c0.075,0.065,0.015,0.108-0.041,0.151
	c-0.093,0.071-0.218,0.168-0.322,0.216c-0.091,0.041-0.147,0.065-0.241,0.09c-0.028,0.008-0.054,0.021-0.08,0.027
	c-0.053,0.014-0.106,0.023-0.159,0.03c-0.185,0.026-0.3,0.03-0.479,0.002c-0.031-0.006-0.053-0.014-0.081,0.011
	c-0.017,0.016-0.001,0.059,0.007,0.077c0.026,0.054,0.05,0.104,0.073,0.161c0.021,0.058,0.053,0.105,0.081,0.16
	c0.061,0.116,0.144,0.227,0.233,0.323c0.025,0.026,0.046,0.054,0.07,0.081c0.019,0.02,0.207,0.185,0.231,0.206
	c0.077,0.062,0.224,0.152,0.314,0.2c0.037,0.02,0.117,0.084,0.157,0.063c0.05-0.028,0.033-0.102,0.04-0.149
	c0.004-0.026,0.013-0.055,0.018-0.079c0.005-0.027,0.007-0.056,0.012-0.081c0.007-0.05,0.019-0.107,0.031-0.156
	c0.011-0.049,0.034-0.111,0.052-0.159c0.009-0.025,0.019-0.052,0.027-0.079c0.01-0.025,0.016-0.053,0.026-0.079
	c0.012-0.025,0.077-0.131,0.094-0.155c0.033-0.052,0.085-0.109,0.124-0.156c0.023-0.027,0.05-0.05,0.071-0.077
	c0.022-0.029,0.044-0.052,0.067-0.079c0.054-0.058,0.092-0.099,0.157-0.024c0.048,0.055,0.102,0.105,0.146,0.165
	c0.057,0.073,0.06,0.086,0.1,0.159c0.078,0.15,0.089,0.154,0.131,0.322c0.036,0.143,0.045,0.17,0.056,0.318
	c0.005,0.056,0.01,0.104,0.005,0.161c-0.005,0.055-0.007,0.063-0.004,0.118c0.001,0.021-0.014,0.093,0.052,0.097
	c0.036,0.001,0.203-0.056,0.24-0.07c0.053-0.022,0.108-0.051,0.16-0.077c0.063-0.028,0.108-0.059,0.161-0.1
	c0.065-0.048,0.184-0.139,0.245-0.193c0.027-0.022,0.05-0.049,0.075-0.076c0.049-0.051,0.092-0.094,0.131-0.154
	c0.035-0.054,0.071-0.1,0.104-0.155C20.425,69.466,20.491,69.322,20.478,69.231"/>
<path fill="#13336D" d="M39.092,75.793c0.026,0.002,0.047,0.002,0.065,0.021l0.125,0.116c0.039,0.032,0.141,0.12,0.174,0.146
	c0.101,0.076,0.122,0.063,0.216,0.104c0.037,0.019,0.068,0.036,0.108,0.052c0.123,0.051,0.237,0.093,0.37,0.115
	c0.045,0.008,0.088,0.019,0.133,0.028l0.14,0.018c0.019,0,0.035-0.014,0.045-0.027c0.014-0.02,0.009-0.043,0.006-0.066
	c-0.01-0.099-0.02-0.184-0.035-0.283c-0.012-0.079-0.085-0.293-0.111-0.372c-0.027-0.083-0.062-0.139-0.104-0.214l-0.091-0.149
	l-0.102-0.139c-0.03-0.041-0.036-0.049-0.079-0.08c-0.031-0.02-0.055-0.031-0.05-0.067c0.006-0.029,0.078-0.075,0.111-0.088
	c0.04-0.013,0.211-0.055,0.259-0.063c0.201-0.039,0.328-0.103,0.533-0.1c0.179,0.003,0.387,0.032,0.561,0.083
	c0.043,0.013,0.077,0.025,0.118,0.042c0.099,0.04,0.275,0.088,0.162,0.222c-0.026,0.03-0.06,0.055-0.087,0.084
	c-0.025,0.025-0.051,0.054-0.075,0.081c-0.094,0.105-0.196,0.26-0.255,0.386c-0.09,0.191-0.131,0.271-0.162,0.48
	c-0.011,0.068-0.046,0.216,0.05,0.237c0.039,0.008,0.103-0.004,0.145-0.008c0.207-0.029,0.168-0.012,0.389-0.089
	c0.151-0.054,0.314-0.108,0.453-0.188c0.041-0.024,0.166-0.096,0.196-0.123c0.076-0.072,0.061-0.086,0.179-0.143
	c0.021,0.019,0.039,0.036,0.052,0.062c0.016,0.025,0.021,0.054,0.034,0.079c0.016,0.028,0.029,0.042,0.039,0.072
	c0.005,0.019,0.039,0.154,0.044,0.183c0.014,0.057,0.016,0.132,0.021,0.192c0.002,0.035,0.005,0.07,0.007,0.104
	c0.003,0.038-0.001,0.075,0,0.112c0.002,0.035,0.006,0.07,0.003,0.106c-0.003,0.07-0.017,0.129-0.026,0.198
	c-0.011,0.07-0.011,0.123-0.029,0.197c-0.034,0.12-0.054,0.218-0.129,0.319c-0.013,0.018-0.044,0.051-0.064,0.052
	c-0.031,0.003-0.053-0.017-0.076-0.035c-0.039-0.038-0.071-0.074-0.117-0.109c-0.041-0.033-0.086-0.063-0.126-0.096
	c-0.043-0.035-0.076-0.068-0.124-0.103c-0.048-0.033-0.088-0.057-0.139-0.084c-0.108-0.055-0.208-0.091-0.322-0.128
	c-0.066-0.021-0.119-0.027-0.189-0.037c-0.076-0.009-0.143-0.003-0.218-0.01c-0.098-0.009-0.088,0.064-0.082,0.134
	c0.012,0.116,0.028,0.273,0.064,0.383c0.033,0.095,0.053,0.152,0.099,0.237c0.014,0.025,0.022,0.053,0.036,0.076
	c0.026,0.049,0.055,0.094,0.085,0.137c0.108,0.152,0.185,0.239,0.327,0.351c0.026,0.02,0.047,0.028,0.048,0.065
	c0,0.024-0.041,0.042-0.06,0.047c-0.057,0.02-0.111,0.037-0.168,0.06c-0.056,0.023-0.113,0.033-0.172,0.051
	c-0.127,0.035-0.263,0.049-0.395,0.052c-0.036,0-0.071,0.002-0.107,0.004c-0.028,0-0.277-0.022-0.308-0.027
	c-0.098-0.013-0.265-0.059-0.361-0.09c-0.04-0.014-0.142-0.028-0.154-0.071c-0.013-0.057,0.053-0.094,0.083-0.132
	c0.015-0.022,0.029-0.047,0.045-0.067c0.016-0.022,0.034-0.044,0.05-0.063c0.031-0.04,0.065-0.089,0.092-0.132
	c0.028-0.042,0.058-0.1,0.08-0.146c0.013-0.023,0.025-0.049,0.039-0.073c0.012-0.025,0.028-0.048,0.04-0.074
	c0.01-0.024,0.043-0.144,0.049-0.175c0.015-0.059,0.022-0.136,0.029-0.197c0.004-0.034,0.002-0.069,0.008-0.104
	c0.005-0.035,0.007-0.067,0.01-0.104c0.006-0.077,0.01-0.134-0.089-0.131c-0.072,0.003-0.147-0.001-0.22,0.007
	c-0.093,0.01-0.103,0.016-0.185,0.037c-0.163,0.046-0.173,0.041-0.324,0.125c-0.128,0.071-0.154,0.084-0.271,0.179
	c-0.043,0.034-0.081,0.063-0.12,0.106c-0.036,0.041-0.042,0.049-0.083,0.084c-0.016,0.014-0.058,0.073-0.106,0.028
	c-0.026-0.026-0.1-0.187-0.113-0.223c-0.02-0.055-0.037-0.113-0.054-0.171c-0.022-0.064-0.031-0.116-0.037-0.185
	c-0.011-0.08-0.025-0.229-0.028-0.311c-0.002-0.035,0.001-0.07,0.003-0.106c0.005-0.071,0.006-0.131,0.024-0.202
	c0.014-0.062,0.023-0.119,0.04-0.182C38.958,75.993,39.017,75.845,39.092,75.793"/>
</svg>
